<svg width="25" height="25" viewBox="0 0 25 25" fill="none" xmlns="http://www.w3.org/2000/svg">
<path d="M0.722117 7.55678C0.61429 6.63071 0.793324 5.83968 1.1636 5.20301C1.43215 4.73783 1.80039 4.36054 2.23169 4.07543C2.6569 3.7946 3.1411 3.60381 3.64972 3.51378C4.45537 3.37015 5.33019 3.47305 6.11957 3.85034C6.40032 3.2844 6.79908 2.80207 7.31584 2.44193C7.91194 2.0282 8.65859 1.78382 9.55579 1.78382C10.5283 1.78382 11.4478 2.21899 12.1213 2.91998C12.6197 3.44089 12.9818 4.10973 13.1283 4.85573C13.7081 4.53846 14.2493 4.39269 14.7376 4.39484C15.1384 4.39484 15.5046 4.49559 15.826 4.6778C16.1454 4.86216 16.4181 5.12584 16.6357 5.46239C17.002 6.02404 17.2135 6.78934 17.238 7.68755C17.3417 7.84618 17.4027 8.03697 17.419 8.25991C17.4251 8.3478 17.4231 8.43784 17.417 8.53216C17.4129 8.56432 17.4088 8.59647 17.4007 8.62434L15.9298 15.4091C15.3947 15.8872 14.8312 16.303 14.2493 16.6718L16.5401 8.42498C16.5442 8.38639 16.5442 8.34995 16.5401 8.32208C16.5361 8.28135 16.532 8.24919 16.5218 8.2299C16.5055 8.21704 16.4913 8.19989 16.4771 8.18274C16.4445 8.16773 16.3957 8.15701 16.3326 8.15058C16.2797 8.1463 16.2207 8.1463 16.1576 8.14844C16.1393 8.15058 16.1231 8.15273 16.1048 8.15273H1.41994C1.3996 8.15701 1.38739 8.16345 1.38332 8.16988C1.3467 8.25562 1.34263 8.40354 1.35891 8.5879L3.6131 18.794C4.04441 18.9998 3.82265 18.9355 4.30075 18.9698C5.25288 19.0384 6.26808 18.7919 7.23039 18.286C9.36048 17.1627 11.2159 14.7789 11.5618 11.6963C11.1467 11.484 10.8619 11.0381 10.8619 10.5194C10.866 9.80123 11.4194 9.21385 12.105 9.21385C12.7906 9.21385 13.346 9.79908 13.346 10.5215C13.346 11.1217 12.9615 11.6277 12.4386 11.7799C12.0623 15.2055 9.99727 17.8615 7.62711 19.1113C6.52443 19.6922 5.35054 19.973 4.24582 19.8916C3.87962 19.8637 4.20717 19.9795 3.86131 19.8723C4.39637 21.9924 4.84802 21.9838 6.49798 21.9517C6.80518 21.9474 7.14291 21.9388 7.37687 21.9388H7.47656C7.4908 21.9667 7.50301 21.9945 7.51725 22.0224C7.67187 22.3268 7.91397 22.6076 8.211 22.8649H7.37687C6.97201 22.8649 6.72991 22.8692 6.51019 22.8735C4.16648 22.9206 3.64769 22.9292 2.89086 19.5872V19.585H2.88883L2.85221 19.4178C2.51042 19.2099 2.18694 18.9505 1.88787 18.6375C0.227741 16.8947 -0.606392 13.4712 0.508498 7.89763C0.530877 7.78187 0.593946 7.68326 0.677359 7.61895C0.6916 7.59537 0.705842 7.57607 0.722117 7.55678ZM2.54297 18.0223L0.954047 10.8366C0.620394 14.438 1.31415 16.7339 2.50431 17.9858C2.51855 17.9987 2.53076 18.0116 2.54297 18.0223ZM16.3245 7.22022C16.2594 6.72074 16.119 6.30058 15.9094 5.97902C15.7691 5.76466 15.6002 5.59745 15.4049 5.48598C15.2116 5.3745 14.9858 5.31662 14.7335 5.31662C14.2493 5.31662 13.6654 5.53099 13.0042 6.00904C12.933 6.06049 12.8455 6.0905 12.7519 6.0905C12.5119 6.08621 12.3186 5.88041 12.3186 5.62746C12.3166 5.6146 12.3166 5.60388 12.3166 5.59102C12.3166 4.80643 11.9992 4.09258 11.5007 3.5738C10.9901 3.04002 10.2902 2.70775 9.55579 2.70775C8.83762 2.70775 8.25169 2.89425 7.79597 3.20938C7.30363 3.55022 6.9537 4.05185 6.74212 4.64136C6.73194 4.67137 6.71974 4.69924 6.70346 4.72497C6.57732 4.94362 6.30674 5.01222 6.10126 4.87717C5.39326 4.42056 4.55913 4.28122 3.7962 4.42056C3.39948 4.4913 3.02514 4.63707 2.69962 4.85144C2.38225 5.06367 2.10963 5.3402 1.91228 5.67891C1.67018 6.09693 1.54201 6.61356 1.57659 7.22237H16.1027C16.178 7.22022 16.2512 7.21808 16.3245 7.22022ZM18.243 12.8088C18.3976 12.6373 18.6153 12.5344 18.9042 12.5087L21.3923 12.8839C21.9335 12.9653 22.4604 13.139 22.4971 13.8421C22.5093 14.08 22.4564 14.3523 22.4218 14.6953L22.4035 14.8818C22.3323 15.572 22.1492 15.4927 21.6121 15.7693C22.9548 18.0887 24.503 20.5411 24.9811 23.2915C25.0869 23.8574 24.7431 24.2283 24.0616 24.4555L22.8429 24.6956C22.9629 23.2014 22.5886 21.6301 21.7931 19.9945C22.0108 21.8595 22.2285 23.6773 21.9396 24.7513L20.6864 25C20.5053 24.3976 20.3568 23.9324 20.1005 23.7395L19.8095 24.8928L17.6998 24.7835C18.4586 23.5616 18.9245 22.2432 19.0486 20.8091C18.3874 22.3568 17.653 23.5037 16.829 24.1897C16.4425 24.6077 16.1047 24.6935 15.8159 24.4255C15.6104 24.2347 15.6429 24.1168 15.6856 23.8381C15.7406 23.478 15.8769 23.1071 16.0661 22.7363C15.6409 23.24 15.3723 23.3622 15.1323 23.6302C14.4548 24.3955 13.2829 24.2776 13.0958 23.2164C12.9757 22.5369 13.405 22.3182 13.8404 21.8381L14.5972 21.0042C13.7488 21.5637 12.8984 22.0996 12.0419 22.4361C11.0572 22.8242 11.0532 22.7834 10.1499 22.2904C8.93324 21.628 8.0279 20.8713 9.72058 20.4146C12.8374 19.3342 15.8769 18.063 18.2715 15.2012C18.0192 15.0404 17.8808 14.8325 17.8381 14.5881C17.771 14.2237 17.9988 13.0789 18.243 12.8088ZM21.6202 1.00995L19.7729 10.8709C19.602 12.5216 21.4249 12.6716 21.7138 11.0489L23.5204 1.17287C23.4777 -0.203382 21.9986 -0.505643 21.6202 1.00995Z" fill="#ED6D23"/>
</svg>
