<svg width="15" height="19" viewBox="0 0 15 19" fill="none" xmlns="http://www.w3.org/2000/svg">
<path d="M10.2094 15.4388C10.2681 15.4406 11.5178 15.5238 12.5597 13.6156C13.5003 11.8928 13.3484 12.7909 14.0313 12.2263C14.0313 12.2263 14.0078 12.1353 13.5019 12.13C13.5019 12.13 11.1391 12.3547 9.48282 14.7247" fill="#3B5628"/>
<path d="M12.0188 7.77184C12.0188 8.04027 11.0966 8.2584 9.95563 8.2584H9.55719C8.41625 8.2584 7.61875 8.06152 7.49344 7.77184C7.36813 7.48215 8.41625 7.08496 9.5575 7.08496H9.95531C11.0963 7.08496 12.0188 7.5034 12.0188 7.77184Z" fill="#934B3B"/>
<path d="M10.1969 12.1313C10.2447 12.1259 11.2581 12.0756 11.735 10.4534C12.1628 8.98844 12.2103 9.72094 12.6503 9.20469C12.6503 9.20469 12.6169 9.13437 12.21 9.17844C12.21 9.17844 10.3644 9.57938 9.48344 11.63M5.09595 8.45313C5.09438 8.42688 5.11563 7.88406 2.88657 7.51844C0.875008 7.19 1.90438 7.21469 1.22188 6.94531C1.22188 6.94531 1.12063 6.95844 1.14563 7.17813C1.14563 7.17813 1.54001 8.18875 4.33001 8.79813" fill="#3B5628"/>
<path d="M11.8622 12.9503C11.8622 13.2012 11.0003 13.4043 9.93843 13.4043H9.56562C8.50312 13.4043 7.64093 13.2018 7.64093 12.9503L7.79937 12.764C7.79937 12.5128 8.50312 12.3087 9.56562 12.3087H9.93843C11.0003 12.3087 11.7028 12.5125 11.7028 12.764L11.8622 12.9503Z" fill="#934B3B"/>
<path d="M10.8219 7.06191C10.8219 7.34035 10.3428 7.56598 9.7525 7.56598C9.16219 7.56598 8.68282 7.34035 8.68282 7.06191V2.88848C8.68282 2.60941 9.16188 2.38379 9.7525 2.38379C10.3422 2.38379 10.8219 2.60941 10.8219 2.88848V7.06191ZM10.8219 12.3529C10.8219 12.6313 10.3428 12.8572 9.7525 12.8572C9.16219 12.8572 8.68282 12.6307 8.68282 12.3529V8.17848C8.68282 7.90004 9.16188 7.67316 9.7525 7.67316C10.3422 7.67316 10.8219 7.90004 10.8219 8.17848V12.3529ZM10.8219 17.696C10.8219 17.975 10.3428 18.201 9.7525 18.201C9.16219 18.201 8.68282 17.9741 8.68282 17.696V13.5235C8.68282 13.2444 9.16188 13.0188 9.7525 13.0188C10.3422 13.0188 10.8219 13.245 10.8219 13.5235V17.696Z" fill="#4B7437"/>
<path d="M4.28812 7.56066C4.24249 7.56254 3.29874 7.60973 2.51218 6.52441C1.80187 5.54535 1.91531 6.05566 1.40062 5.7341C1.40062 5.7341 1.41718 5.68223 1.79968 5.68066C1.79968 5.68066 3.58499 5.80723 4.83624 7.15535" fill="#3B5628"/>
<path d="M6.44375 13.0844C6.44375 13.3534 5.765 13.5719 4.92688 13.5719H4.63438C3.79719 13.5719 3.11844 13.3537 3.11844 13.0844L3.24531 12.884C3.24531 12.6156 3.79688 12.3969 4.63406 12.3969H4.92688C5.765 12.3969 6.3175 12.6153 6.3175 12.884L6.44375 13.0844Z" fill="#934B3B"/>
<path d="M9.30625 6.36974C9.30625 6.63817 8.38406 6.8563 7.24312 6.8563H6.845C5.70375 6.8563 4.90625 6.65942 4.78125 6.36974C4.65625 6.08005 5.70437 5.68286 6.84531 5.68286H7.24375C8.38468 5.68286 9.30625 6.1013 9.30625 6.36974Z" fill="#BF694F"/>
<path d="M7.05 8.80028C7.05 9.06872 6.12781 9.28684 4.98719 9.28684H4.58906C3.44781 9.28684 2.65031 9.08997 2.52531 8.80028C2.40031 8.51059 3.44844 8.1134 4.58937 8.1134H4.98781C6.12844 8.1134 7.05 8.53184 7.05 8.80028Z" fill="#934B3B"/>
<path d="M9.30625 12.0418C9.30625 12.3093 8.38406 12.529 7.24313 12.529H6.845C5.70375 12.529 4.78125 12.3099 4.78125 12.0418L4.95219 11.8412C4.95219 11.5718 5.70438 11.354 6.84594 11.354H7.24438C8.38469 11.354 9.135 11.5715 9.135 11.8412L9.30625 12.0418Z" fill="#BF694F"/>
<path d="M8.18969 5.72838C8.18969 6.02682 7.67719 6.26932 7.04438 6.26932C6.41157 6.26932 5.89813 6.02619 5.89813 5.72838V1.25432C5.89782 0.955879 6.41157 0.713379 7.04438 0.713379C7.67719 0.713379 8.18969 0.955879 8.18969 1.25432V5.72838ZM8.18969 11.4006C8.18969 11.6996 7.67719 11.9412 7.04438 11.9412C6.41157 11.9412 5.89813 11.6996 5.89813 11.4006V6.92588C5.89813 6.62713 6.41188 6.38463 7.04438 6.38463C7.67688 6.38463 8.18969 6.62713 8.18969 6.92588V11.4006ZM8.18969 17.1312C8.18969 17.4309 7.67719 17.6721 7.04438 17.6721C6.41157 17.6721 5.89813 17.4309 5.89813 17.1312V12.6568C5.89813 12.359 6.41188 12.1162 7.04438 12.1162C7.67688 12.1162 8.18969 12.359 8.18969 12.6568V17.1312Z" fill="#5C8F40"/>
<path d="M5.6225 8.0781C5.6225 8.30248 5.24625 8.48498 4.78156 8.48498C4.31594 8.48498 3.93938 8.30248 3.93938 8.0781V4.71029C3.93938 4.4856 4.31625 4.3031 4.78156 4.3031C5.24688 4.3031 5.6225 4.4856 5.6225 4.71029V8.0781ZM5.6225 12.3456C5.6225 12.5706 5.24625 12.7525 4.78156 12.7525C4.31594 12.7525 3.93938 12.5706 3.93938 12.3456V8.97841C3.93938 8.75341 4.31625 8.5706 4.78156 8.5706C5.24688 8.5706 5.6225 8.75341 5.6225 8.97841V12.3456ZM5.6225 17.9406C5.6225 18.2397 5.24625 18.4815 4.78156 18.4815C4.31594 18.4815 3.93938 18.2397 3.93938 17.9406V13.4662C3.93938 13.1681 4.31625 12.9259 4.78156 12.9259C5.24688 12.9259 5.6225 13.1678 5.6225 13.4662V17.9406Z" fill="#4B7437"/>
<path d="M14.4481 17.5813C14.4481 18.1779 14.0672 18.6619 13.5972 18.6619H1.05344C0.583757 18.6619 0.20282 18.1779 0.20282 17.5813C0.20282 16.9847 0.583757 16.5004 1.05344 16.5004H13.5972C14.0666 16.5004 14.4475 16.9844 14.4475 17.5813" fill="#BF694F"/>
<path d="M4.78062 7.46159C5.20294 7.46159 5.5453 6.7896 5.5453 5.96065C5.5453 5.13171 5.20294 4.45972 4.78062 4.45972C4.35829 4.45972 4.01593 5.13171 4.01593 5.96065C4.01593 6.7896 4.35829 7.46159 4.78062 7.46159Z" fill="#EDD288"/>
<path d="M7.04374 4.97469C7.61933 4.97469 8.08593 4.05869 8.08593 2.92875C8.08593 1.79881 7.61933 0.882812 7.04374 0.882812C6.46816 0.882812 6.00156 1.79881 6.00156 2.92875C6.00156 4.05869 6.46816 4.97469 7.04374 4.97469Z" fill="#EDD288"/>
<path d="M9.75155 6.38469C10.2728 6.38469 10.6953 5.55529 10.6953 4.53219C10.6953 3.50908 10.2728 2.67969 9.75155 2.67969C9.23033 2.67969 8.8078 3.50908 8.8078 4.53219C8.8078 5.55529 9.23033 6.38469 9.75155 6.38469Z" fill="#EDD288"/>
</svg>
