<svg width="20" height="20" viewBox="0 0 20 20" fill="none" xmlns="http://www.w3.org/2000/svg">
<path d="M13.7102 5.55461V4.77429H6.28986V5.55461C6.28986 5.80573 6.17453 6.04941 5.96286 6.24549L5.16182 6.98761C4.95016 7.18373 4.83484 7.42736 4.83484 7.67849V19.8H15.1652V7.67849C15.1652 7.42736 15.0498 7.18369 14.8382 6.98761L14.0372 6.24549C13.8255 6.04941 13.7102 5.80573 13.7102 5.55461Z" fill="#FDDF7F"/>
<path d="M8.12767 12.85C8.48127 12.85 8.76795 12.6374 8.76795 12.3753C8.76795 12.6374 9.05458 12.85 9.40819 12.85C9.7618 12.85 10.0484 12.6374 10.0484 12.3753C10.0484 12.6374 10.3352 12.85 10.6888 12.85C11.0423 12.85 11.3291 12.6374 11.3291 12.3753C11.3291 12.6374 11.6157 12.85 11.9693 12.85C12.3229 12.85 12.6096 12.6374 12.6096 12.3753L12.6126 12.3786L10.0486 7.61401L7.48438 12.3786L7.48745 12.3753C7.4874 12.6374 7.77407 12.85 8.12767 12.85Z" fill="#ECF4F7"/>
<path d="M8.224 15.9996C9.32224 16.5615 10.7748 16.5615 11.8731 15.9996C13.1064 15.3688 13.5873 14.1897 13.0322 13.1581L12.6127 12.3786L12.6096 12.3754C12.6096 12.6375 12.323 12.85 11.9694 12.85C11.6157 12.85 11.3291 12.6375 11.3291 12.3754C11.3291 12.6375 11.0425 12.85 10.6889 12.85C10.3352 12.85 10.0486 12.6375 10.0486 12.3754C10.0486 12.6375 9.76183 12.85 9.40822 12.85C9.05473 12.85 8.76799 12.6375 8.76799 12.3754C8.76799 12.6375 8.48132 12.85 8.12773 12.85C7.77413 12.85 7.48745 12.6375 7.48745 12.3754L7.48437 12.3786L7.06494 13.1581C6.50977 14.1897 6.99073 15.3688 8.224 15.9996Z" fill="#83E1E5"/>
<path d="M13.7103 2.22197H11.2853V0.967529H8.71479V2.22197H6.28986C5.88807 2.22197 5.56238 2.46337 5.56238 2.76117V4.23497C5.56238 4.53277 5.88807 4.77417 6.28986 4.77417H13.7103C14.112 4.77417 14.4378 4.53277 14.4378 4.23497V2.76117C14.4378 2.46337 14.112 2.22197 13.7103 2.22197Z" fill="#ED6D23"/>
<path d="M2.3456 3.49812C2.3456 3.38768 2.46644 3.29812 2.61544 3.29812H2.93024V3.0648C2.93024 2.95436 3.05107 2.8648 3.20008 2.8648C3.34908 2.8648 3.46992 2.95436 3.46992 3.0648V3.29812H3.78471C3.93371 3.29812 4.05455 3.38768 4.05455 3.49812C4.05455 3.60856 3.93371 3.69812 3.78471 3.69812H3.46992V3.93144C3.46992 4.04188 3.34908 4.13144 3.20008 4.13144C3.05107 4.13144 2.93024 4.04188 2.93024 3.93144V3.69812H2.61544C2.46644 3.69812 2.3456 3.60856 2.3456 3.49812ZM16.2153 3.69812H16.5301V3.93144C16.5301 4.04188 16.6509 4.13144 16.8 4.13144C16.949 4.13144 17.0698 4.04188 17.0698 3.93144V3.69812H17.3845C17.5337 3.69812 17.6544 3.60856 17.6544 3.49812C17.6544 3.38768 17.5337 3.29812 17.3845 3.29812H17.0698V3.0648C17.0698 2.95436 16.949 2.8648 16.8 2.8648C16.6509 2.8648 16.5301 2.95436 16.5301 3.0648V3.29812H16.2153C16.0662 3.29812 15.9454 3.38768 15.9454 3.49812C15.9454 3.60856 16.0662 3.69812 16.2153 3.69812ZM4.83486 9.69336C4.98387 9.69336 5.1047 9.60373 5.1047 9.49336V9.36C5.1047 9.24955 4.98387 9.16 4.83486 9.16C4.68586 9.16 4.56502 9.24955 4.56502 9.36V9.49336C4.56502 9.60382 4.68581 9.69336 4.83486 9.69336ZM18.4178 19.8C18.4178 19.9105 18.2969 20 18.1479 20H15.1651H4.83486H1.85212C1.70311 20 1.58229 19.9105 1.58229 19.8C1.58229 19.6895 1.70311 19.6 1.85212 19.6H4.56497V18.652H3.92546C3.77646 18.652 3.65562 18.5625 3.65562 18.452C3.65562 18.3415 3.77646 18.252 3.92546 18.252H4.56497V10.232C4.56497 10.1215 4.68581 10.032 4.83481 10.032C4.98381 10.032 5.10465 10.1215 5.10465 10.232V18.252H14.8953V7.67844C14.8953 7.47352 14.8002 7.27252 14.6275 7.11252L13.8265 6.3704C13.5775 6.13968 13.4403 5.84996 13.4403 5.55456V4.97424H6.55967V5.55456C6.55967 5.84996 6.42254 6.13968 6.17353 6.3704L5.37255 7.11256C5.19979 7.27256 5.1047 7.47356 5.1047 7.67848V8.61336C5.1047 8.7238 4.98387 8.81336 4.83486 8.81336C4.68586 8.81336 4.56502 8.7238 4.56502 8.61336V7.67848C4.56502 7.38304 4.70216 7.09332 4.95116 6.86264L5.75215 6.12052C5.92491 5.96048 6.01999 5.75948 6.01999 5.55456V4.946C5.60093 4.85848 5.29251 4.57328 5.29251 4.23504V2.7612C5.29251 2.3536 5.7399 2.022 6.28983 2.022H8.44499V1.16756H7.9752C7.8262 1.16756 7.70536 1.078 7.70536 0.967564C7.70536 0.85712 7.8262 0.76756 7.9752 0.76756H8.71482H9.73018V0.2C9.73018 0.08956 9.85099 0 10 0C10.149 0 10.2699 0.08956 10.2699 0.2V0.76756H11.2852H12.0248C12.1739 0.76756 12.2946 0.85712 12.2946 0.967564C12.2946 1.078 12.1739 1.16756 12.0248 1.16756H11.555V2.022H13.7102C14.2602 2.022 14.7075 2.3536 14.7075 2.7612V4.23504C14.7075 4.57328 14.3991 4.85848 13.98 4.946V5.55456C13.98 5.75948 14.0752 5.96048 14.2479 6.12052L15.0489 6.86264C15.2978 7.09332 15.4349 7.38304 15.4349 7.67848V18.252H16.0746C16.2236 18.252 16.3444 18.3415 16.3444 18.452C16.3444 18.5625 16.2236 18.652 16.0746 18.652H15.4349V19.6H18.1479C18.2969 19.6 18.4178 19.6895 18.4178 19.8ZM8.98469 2.022H11.0155V1.16756H8.98469V2.022ZM13.7102 4.57424C13.9626 4.57424 14.1678 4.42208 14.1678 4.23504V2.7612C14.1678 2.57416 13.9625 2.422 13.7102 2.422H11.2852H8.71478H6.28978C6.03743 2.422 5.83214 2.57416 5.83214 2.7612V4.23504C5.83214 4.42208 6.03743 4.57424 6.28978 4.57424H13.7102ZM14.8953 19.6V18.652H5.1047V19.6H14.8953ZM0.524457 19.6H0.269839C0.120839 19.6 0 19.6895 0 19.8C0 19.9105 0.120839 20 0.269839 20H0.524457C0.673469 20 0.794295 19.9105 0.794295 19.8C0.794295 19.6895 0.673518 19.6 0.524457 19.6ZM19.7302 19.6H19.4755C19.3265 19.6 19.2057 19.6895 19.2057 19.8C19.2057 19.9105 19.3265 20 19.4755 20H19.7302C19.8792 20 20 19.9105 20 19.8C20 19.6895 19.8792 19.6 19.7302 19.6ZM9.77875 6.58C9.77875 6.46956 9.89956 6.38 10.0486 6.38C10.1975 6.38 10.3184 6.46956 10.3184 6.58V7.5756L12.8634 12.3046L13.2827 13.084C13.8884 14.2094 13.3717 15.476 12.0264 16.1643C11.4348 16.4668 10.7416 16.6181 10.0486 16.6181C9.35547 16.6181 8.66221 16.4668 8.07078 16.1643C6.72535 15.476 6.20872 14.2094 6.81435 13.084L7.23379 12.3046L9.77875 7.57564V6.58ZM12.3372 12.4066L10.0486 8.15388L7.75987 12.4066C7.76072 12.4122 7.76198 12.4177 7.76332 12.4232C7.76396 12.4259 7.76434 12.4286 7.7651 12.4314C7.76753 12.44 7.77044 12.4485 7.7739 12.4567C7.77449 12.4581 7.7753 12.4595 7.7759 12.4608C7.77891 12.4676 7.78221 12.4745 7.78593 12.4811C7.78755 12.4839 7.7895 12.4866 7.79122 12.4895C7.79436 12.4945 7.79742 12.4995 7.80093 12.5044C7.80315 12.5074 7.80558 12.5103 7.80796 12.5133C7.8114 12.5176 7.81491 12.5221 7.81869 12.5264C7.82139 12.5294 7.82431 12.5323 7.8271 12.5352C7.83099 12.5392 7.83488 12.5432 7.83904 12.547C7.84217 12.5499 7.84545 12.5526 7.84869 12.5554C7.85296 12.559 7.85728 12.5626 7.86182 12.5661C7.86532 12.5687 7.86899 12.5714 7.87261 12.574C7.87725 12.5773 7.88199 12.5805 7.88685 12.5835C7.89069 12.586 7.89463 12.5884 7.89861 12.5907C7.90369 12.5936 7.90882 12.5965 7.91405 12.5993C7.91821 12.6015 7.92236 12.6036 7.92663 12.6056C7.93207 12.6083 7.93764 12.6107 7.94325 12.6131C7.94762 12.615 7.95204 12.6169 7.95653 12.6186C7.96229 12.6208 7.96829 12.6229 7.97423 12.6249C7.97882 12.6265 7.9834 12.6281 7.9881 12.6295C7.99431 12.6314 8.00061 12.633 8.00699 12.6346C8.01167 12.6358 8.01637 12.6371 8.02112 12.6382C8.02786 12.6397 8.03483 12.6409 8.04174 12.6421C8.04632 12.6429 8.05086 12.6439 8.0555 12.6445C8.06332 12.6457 8.07131 12.6465 8.07931 12.6473C8.08324 12.6476 8.08707 12.6483 8.09107 12.6485C8.1031 12.6494 8.11529 12.6499 8.12766 12.6499C8.33192 12.6499 8.49809 12.5267 8.49809 12.3754C8.49809 12.2649 8.61892 12.1754 8.76794 12.1754C8.91698 12.1754 9.0378 12.2649 9.0378 12.3754C9.0378 12.5267 9.20399 12.6499 9.40821 12.6499C9.61243 12.6499 9.77863 12.5267 9.77863 12.3754C9.77863 12.2649 9.89944 12.1754 10.0485 12.1754C10.1975 12.1754 10.3183 12.2649 10.3183 12.3754C10.3183 12.5267 10.4844 12.6499 10.6887 12.6499C10.8929 12.6499 11.0591 12.5267 11.0591 12.3754C11.0591 12.2649 11.1799 12.1754 11.329 12.1754C11.478 12.1754 11.5988 12.2649 11.5988 12.3754C11.5988 12.5267 11.765 12.6499 11.9692 12.6499C11.9815 12.6499 11.9938 12.6494 12.0058 12.6485C12.0097 12.6483 12.0136 12.6476 12.0174 12.6473C12.0255 12.6465 12.0335 12.6457 12.0413 12.6445C12.0459 12.6439 12.0504 12.6429 12.055 12.6421C12.062 12.6409 12.0688 12.6396 12.0757 12.6382C12.0805 12.6371 12.0851 12.6358 12.0898 12.6346C12.0962 12.633 12.1026 12.6314 12.1087 12.6295C12.1133 12.628 12.118 12.6265 12.1225 12.6249C12.1286 12.6229 12.1344 12.6208 12.1403 12.6185C12.1447 12.6168 12.1493 12.615 12.1536 12.6131C12.1592 12.6106 12.1647 12.6082 12.1703 12.6056C12.1744 12.6035 12.1786 12.6014 12.1828 12.5993C12.188 12.5965 12.1932 12.5936 12.1982 12.5906C12.2023 12.5884 12.2062 12.586 12.21 12.5835C12.2149 12.5804 12.2197 12.5771 12.2243 12.5738C12.228 12.5713 12.2316 12.5687 12.2351 12.5661C12.2397 12.5625 12.2441 12.559 12.2484 12.5553C12.2516 12.5525 12.2549 12.5498 12.258 12.547C12.2621 12.5431 12.2661 12.5391 12.27 12.535C12.2728 12.5322 12.2756 12.5294 12.2783 12.5264C12.2821 12.522 12.2857 12.5175 12.2892 12.513C12.2916 12.5101 12.2939 12.5074 12.296 12.5044C12.2997 12.4994 12.3028 12.4942 12.3062 12.489C12.3078 12.4864 12.3095 12.4838 12.3111 12.4812C12.315 12.4742 12.3184 12.467 12.3216 12.4596C12.3221 12.4586 12.3227 12.4577 12.3231 12.4567C12.3265 12.4485 12.3295 12.44 12.3319 12.4314C12.3327 12.4287 12.333 12.4261 12.3336 12.4235C12.335 12.418 12.3363 12.4124 12.3372 12.4066ZM12.7814 13.2322L12.5868 12.8705C12.5773 12.8771 12.5669 12.883 12.557 12.8893C12.5469 12.8955 12.5372 12.9021 12.5269 12.908C12.515 12.9149 12.5025 12.9211 12.4901 12.9275C12.4797 12.933 12.4694 12.9387 12.4586 12.9439C12.4456 12.9501 12.4319 12.9555 12.4184 12.9612C12.4076 12.9658 12.397 12.9707 12.3858 12.975C12.3717 12.9804 12.3569 12.985 12.3423 12.9899C12.3312 12.9936 12.3204 12.9977 12.309 13.0012C12.2938 13.0057 12.2779 13.0094 12.2622 13.0134C12.251 13.0162 12.2399 13.0195 12.2285 13.022C12.2118 13.0257 12.1947 13.0285 12.1776 13.0314C12.1666 13.0334 12.1559 13.0357 12.1447 13.0374C12.1256 13.0401 12.106 13.0418 12.0864 13.0437C12.0769 13.0446 12.0678 13.046 12.0583 13.0467C12.0291 13.0489 11.9994 13.05 11.9694 13.05C11.72 13.05 11.4937 12.9752 11.3291 12.8544C11.1645 12.9752 10.9383 13.05 10.6888 13.05C10.4395 13.05 10.2132 12.9752 10.0486 12.8544C9.88399 12.9752 9.65769 13.05 9.40834 13.05C9.15886 13.05 8.93256 12.9752 8.76803 12.8544C8.60349 12.9752 8.37715 13.05 8.12777 13.05C8.09775 13.05 8.06813 13.0488 8.03888 13.0467C8.02944 13.0461 8.02026 13.0446 8.01086 13.0437C7.99123 13.0419 7.97153 13.0402 7.95231 13.0374C7.94163 13.0358 7.93132 13.0335 7.92074 13.0316C7.90326 13.0286 7.88567 13.0258 7.86861 13.022C7.85744 13.0195 7.84675 13.0164 7.8358 13.0136C7.81982 13.0095 7.80369 13.0058 7.78809 13.0012C7.77703 12.9978 7.7665 12.9938 7.75566 12.9903C7.74076 12.9853 7.72571 12.9805 7.71125 12.975C7.70039 12.9708 7.69014 12.966 7.6795 12.9615C7.66574 12.9557 7.65177 12.9502 7.63844 12.9438C7.6278 12.9388 7.61782 12.9331 7.60747 12.9277C7.59495 12.9213 7.58215 12.915 7.57012 12.908C7.55981 12.9021 7.5502 12.8956 7.54027 12.8894C7.53028 12.8831 7.51982 12.8771 7.51022 12.8705L7.31555 13.2322C6.80378 14.1832 7.24032 15.2535 8.37721 15.835C9.37681 16.3464 10.7201 16.3464 11.7198 15.835C12.8566 15.2535 13.2933 14.1832 12.7814 13.2322ZM10.0486 6.02C10.1975 6.02 10.3184 5.93044 10.3184 5.82V5.68C10.3184 5.56956 10.1976 5.48 10.0486 5.48C9.89944 5.48 9.77875 5.56956 9.77875 5.68V5.82C9.77875 5.93044 9.89956 6.02 10.0486 6.02Z" fill="#1C1D21"/>
</svg>
