<svg width="17" height="18" viewBox="0 0 17 18" fill="none" xmlns="http://www.w3.org/2000/svg">
<path d="M10.4477 8.98666L11.8576 8.78482C11.8576 8.78482 12.0814 11.7013 12.2511 12.045C12.4208 12.3887 14.2681 14.5037 14.2681 14.5037L13.879 15.3462L11.372 12.9723C11.1029 12.7178 10.9289 12.38 10.8762 12.0128L10.4477 8.98666Z" fill="url(#paint0_linear_1_151)"/>
<path d="M6.48977 8.98666L5.07979 8.78482C5.07979 8.78482 4.85601 11.7013 4.68634 12.045C4.51668 12.3902 2.66937 14.5037 2.66937 14.5037L3.05843 15.3462L5.56392 12.9723C5.83304 12.7178 6.0071 12.38 6.05975 12.0128L6.48977 8.98666Z" fill="url(#paint1_linear_1_151)"/>
<path d="M12.0975 9.6536L11.9761 8.27287C11.96 8.08419 11.6222 6.54843 8.53602 6.54843C5.44987 6.54843 5.0491 8.05202 5.03009 8.27141L4.90869 9.65214L6.24554 9.77061V13.844H10.806V9.76768L12.0975 9.6536Z" fill="url(#paint2_linear_1_151)"/>
<path d="M11.9162 15.8201C10.9421 15.9883 10.0981 16.2442 9.14887 16.5265C8.72178 16.6538 8.27275 16.7854 7.77985 16.917C6.82036 17.173 5.69414 17.429 4.24028 17.6425C3.37879 17.7698 2.47488 17.6425 2.01708 17.3602C1.67629 17.1496 1.37645 16.7328 1.49492 16.3788C1.6251 15.9868 2.01416 15.5509 2.56264 15.2891C2.78935 15.1809 3.03507 15.0785 3.28811 14.9849C3.9185 14.7494 4.58839 14.5578 5.09007 14.4262C5.56835 14.3019 5.89598 14.2331 5.89598 14.2331C6.49566 14.1015 7.04853 14.0986 7.48732 14.2872C8.25082 14.6134 12.1838 15.7747 11.9162 15.8201Z" fill="url(#paint3_linear_1_151)"/>
<path d="M4.14517 14.7187L3.43287 15.4106L2.81418 15.8347C2.79955 15.8464 2.78054 15.8523 2.76152 15.8508L2.60502 15.8362C2.5158 15.8844 2.4178 15.9108 2.31834 15.9108C2.273 15.9108 2.22474 15.9049 2.17939 15.8962C2.07555 15.8727 1.98194 15.823 1.90442 15.7513C2.07408 15.5846 2.28324 15.4354 2.52311 15.3184C3.00432 15.0844 3.57328 14.8752 4.10422 14.707L4.14517 14.7187Z" fill="url(#paint4_linear_1_151)"/>
<path d="M14.9745 17.3602C14.5167 17.6425 13.6157 17.7581 12.7513 17.6425C11.1029 17.4231 9.07279 16.7532 7.61747 16.0439C6.79109 15.6416 6.0744 15.1604 5.66047 14.922C5.36941 14.7538 5.13831 14.6602 4.77266 14.6997C4.62932 14.7158 4.58251 14.726 4.48159 14.7216C4.27682 14.7129 4.45819 14.3867 4.45819 14.3867C4.55765 14.1556 4.88967 13.8909 5.21583 14.0079C5.542 14.1249 5.93399 14.3604 5.93399 14.3604C6.67846 14.5915 6.71211 14.1293 7.14797 14.2828C7.3659 14.3589 7.41563 14.6192 7.42148 14.7655C7.42879 14.9235 7.66867 15.0697 7.82663 15.0917L8.84901 15.2131L8.98942 15.2292L9.35508 15.273L10.4667 14.4832L10.6203 14.3735L11.0225 14.0883C11.0225 14.0883 11.1322 14.1249 11.3165 14.1892C11.3735 14.2082 11.4379 14.2317 11.5095 14.2565C11.8108 14.3618 12.2233 14.5081 12.665 14.6719C12.7147 14.6909 12.7659 14.7099 12.8171 14.7289C13.389 14.944 13.9945 15.1838 14.4597 15.3988C15.0111 15.6533 15.3665 15.9868 15.4981 16.3788C15.6151 16.7328 15.3153 17.1496 14.9745 17.3602Z" fill="url(#paint5_linear_1_151)"/>
<path d="M10.8236 13.9113L10.8016 13.4096C10.8016 13.4096 10.2005 13.6846 8.5638 13.6846C6.92711 13.6846 6.2426 13.4096 6.2426 13.4096V13.9113L5.16464 14.5549L8.51699 16.0833L12.0551 14.5417L10.8236 13.9113Z" fill="#7C7C7C"/>
<path d="M9.14885 16.5265C8.72176 16.6538 8.27273 16.7854 7.77983 16.917C7.58237 16.8293 7.39223 16.7401 7.20794 16.6508C6.48832 16.2983 5.82868 15.8961 5.34893 15.6021L5.31237 15.5817C5.12808 15.4676 4.96865 15.3696 4.83555 15.2921C4.56789 15.137 4.46112 15.1107 4.3207 15.1107C4.28414 15.1107 4.24757 15.1136 4.20808 15.1195L4.10423 15.1297C4.02964 15.1385 3.94334 15.1502 3.83511 15.1502C3.80732 15.1502 3.78099 15.1487 3.75028 15.1473C3.57622 15.1399 3.4168 15.0844 3.28809 14.9849C3.91848 14.7494 4.58836 14.5578 5.09005 14.4262C5.15148 14.4554 5.21291 14.4905 5.27726 14.5271C5.41183 14.6061 5.57857 14.707 5.76578 14.8226C6.24114 15.1136 6.89055 15.5129 7.59553 15.8566C8.05919 16.0833 8.56965 16.3042 9.11082 16.5119L9.14885 16.5265Z" fill="url(#paint6_linear_1_151)"/>
<path d="M3.87314 16.0117C3.88484 15.8625 3.97699 15.7309 4.08668 15.6387C4.19638 15.5422 4.32509 15.4764 4.46112 15.4266C4.52693 15.4032 4.60738 15.3842 4.6732 15.3769L4.8765 15.3491C5.01253 15.333 5.14855 15.3155 5.28458 15.3023C5.55663 15.2731 5.83014 15.257 6.10365 15.2482C6.37716 15.2394 6.65068 15.2394 6.92711 15.2584C6.96807 15.2614 6.99878 15.2965 6.99586 15.3374C6.99293 15.3769 6.96075 15.4076 6.92126 15.4062H6.91834C6.65068 15.4018 6.37863 15.4105 6.1095 15.4208C5.83891 15.4325 5.56979 15.453 5.30067 15.4734C5.1661 15.4851 5.03154 15.4983 4.89698 15.5129L4.69514 15.5378C4.62493 15.5451 4.57228 15.5539 4.50792 15.5714C4.38652 15.6065 4.26659 15.6621 4.16128 15.7323C4.05597 15.804 3.96675 15.8976 3.92726 16.019V16.0205C3.92287 16.0351 3.90678 16.0424 3.89215 16.038C3.88045 16.0351 3.87314 16.0234 3.87314 16.0117Z" fill="#EDA600"/>
<path d="M14.9745 17.3602C14.5167 17.6425 13.6157 17.7581 12.7513 17.6425C11.5417 17.4816 10.1273 17.0779 8.88411 16.5938C8.43362 16.4183 8.00507 16.2325 7.61747 16.0439C6.79109 15.6416 6.0744 15.1604 5.66047 14.922C5.36941 14.7538 5.13831 14.6602 4.77266 14.6997C4.62932 14.7158 4.58251 14.726 4.48159 14.7216C4.27682 14.7129 4.45819 14.3867 4.45819 14.3867C4.55765 14.1556 4.88967 13.8909 5.21583 14.0079C5.542 14.1249 5.93399 14.3604 5.93399 14.3604C6.67846 14.5915 6.71211 14.1293 7.14797 14.2828C7.3659 14.3589 7.41563 14.6192 7.42148 14.7655C7.42879 14.9235 7.66867 15.0697 7.82663 15.0917C7.82663 15.0917 8.24348 15.1663 8.6969 15.2262H8.69836L8.77295 15.235C8.80513 15.2394 8.83731 15.2438 8.86949 15.2467C8.97772 15.2599 9.08449 15.2701 9.18541 15.2789L9.2132 15.2818H9.22052C9.22198 15.2833 9.22344 15.2833 9.22491 15.2818H9.22637C9.33607 15.2906 9.43845 15.295 9.52621 15.295C9.66516 15.295 9.79972 15.2906 9.93136 15.2818C10.3848 15.254 10.8031 15.1853 11.2082 15.1268C11.3223 15.1092 11.4349 15.0931 11.5476 15.0785H11.549C11.9513 15.0273 12.3462 14.9995 12.7586 15.0463C13.5367 15.1356 14.4918 15.4003 15.4191 16.2018C15.4499 16.2589 15.4777 16.3188 15.4981 16.3788C15.6151 16.7328 15.3153 17.1496 14.9745 17.3602Z" fill="url(#paint7_linear_1_151)"/>
<path d="M13.0702 15.3491C12.8113 15.2555 12.0609 15.1546 11.628 15.1034C11.1951 15.0522 11.9761 14.8913 12.5305 14.9557C12.8756 14.9966 12.5422 14.3926 12.5422 14.3926C12.5422 14.3926 11.6865 14.8592 11.3954 15.0274C11.3823 15.0347 11.353 15.0508 11.315 15.0698C11.3092 15.0727 11.3033 15.0756 11.2975 15.0786C11.2697 15.0932 11.2389 15.1093 11.2082 15.1268C11.1249 15.1692 11.0371 15.2146 10.9932 15.2394C11.0912 15.2424 11.1878 15.2468 11.2858 15.2511C12.2511 15.2994 13.1886 15.4281 13.6274 15.8011C13.6406 15.8113 13.6625 15.8069 13.6581 15.7923C13.6143 15.6578 13.4358 15.4822 13.0702 15.3491Z" fill="#EDA600"/>
<path d="M12.5729 14.8269C12.4734 14.8313 12.4266 14.8211 12.2818 14.8035C11.9176 14.7655 11.6865 14.8591 11.3955 15.0273C11.3823 15.0346 11.3531 15.0507 11.315 15.0697C11.3092 15.0727 11.3033 15.0756 11.2975 15.0785C11.2697 15.0931 11.239 15.1092 11.2083 15.1268C11.1249 15.1692 11.0371 15.2145 10.9932 15.2394C10.9845 15.2438 10.9757 15.2482 10.9713 15.2511C10.9713 15.2511 10.4331 15.2496 10.2078 15.2701C10.1625 15.2745 10.1201 15.2774 10.082 15.2804C9.8875 15.295 9.76756 15.295 9.52623 15.295C9.43847 15.295 9.33609 15.2906 9.22639 15.2818C9.22493 15.2818 9.22493 15.2818 9.22493 15.2818H9.21322L9.18543 15.2789C9.08451 15.2701 8.97774 15.2599 8.86951 15.2467L8.87828 15.2453H8.87975L9.18105 15.2028L9.22931 15.1955C9.33024 15.1824 9.46334 15.118 9.54963 15.0317C9.55109 15.0302 9.55256 15.0288 9.55256 15.0273C9.56426 15.0171 9.57303 15.0068 9.58181 14.9951C9.61106 14.9571 9.63008 14.9147 9.633 14.8694C9.633 14.862 9.63446 14.8547 9.63593 14.8474C9.64616 14.6982 9.70028 14.4584 9.90797 14.3867C10.3438 14.2346 10.376 14.6953 11.1205 14.4657C11.1205 14.4657 11.5125 14.2302 11.8386 14.1132C12.1648 13.9962 12.4983 14.2594 12.5963 14.4905C12.5963 14.4905 12.6212 14.5344 12.6416 14.5885C12.6767 14.6851 12.7045 14.8211 12.5729 14.8269Z" fill="url(#paint8_linear_1_151)"/>
<path d="M16.1666 14.1351C16.1666 14.1117 16.1549 14.0883 16.1344 14.0752C16.1139 14.062 16.0905 14.0576 16.0671 14.0664C16.0583 14.0693 15.8697 14.1366 15.7834 14.3194C15.779 14.3282 15.7761 14.3384 15.7761 14.3487L15.7629 14.7041C15.7453 14.729 15.719 14.7641 15.6898 14.805L15.64 14.3604L15.6517 13.7607C15.6517 13.7402 15.6444 13.7197 15.6298 13.7051C15.6152 13.6905 15.5932 13.6832 15.5742 13.6846C15.5698 13.6846 15.5157 13.689 15.4499 13.711C15.444 13.711 15.4397 13.711 15.4338 13.711C15.4294 13.711 15.425 13.7124 15.4192 13.7124C15.4089 13.7124 15.4002 13.7139 15.3899 13.7153C15.3797 13.7168 15.368 13.7183 15.3577 13.7212C15.349 13.7227 15.3417 13.7256 15.3329 13.727C15.3226 13.73 15.3139 13.7329 15.3036 13.7373C15.2963 13.7402 15.289 13.7431 15.2817 13.7475C15.2729 13.7519 15.2656 13.7563 15.2568 13.7622C15.2495 13.7665 15.2437 13.7709 15.2363 13.7753C15.229 13.7812 15.2217 13.787 15.2159 13.7929C15.21 13.7987 15.2027 13.8046 15.1969 13.8104C15.191 13.8163 15.1852 13.8221 15.1793 13.828C15.1735 13.8353 15.1661 13.8426 15.1603 13.8499C15.1559 13.8558 15.1515 13.8616 15.1471 13.866C15.1398 13.8748 15.1325 13.885 15.1267 13.8938C15.1237 13.8967 15.1223 13.9011 15.1193 13.904C15.0301 14.0342 14.9628 14.1907 14.8283 14.2419C14.8049 14.2507 14.78 14.258 14.7537 14.2638C14.5094 14.315 14.1906 14.22 14.0063 14.432L14.0077 14.435C14.0019 14.4408 13.9946 14.4467 13.9887 14.454C13.939 14.5139 13.7415 14.4013 13.7415 14.4013L13.3715 14.6602L13.3291 14.6207L13.2004 14.4993L13.0307 14.5403L13.7489 15.2262L14.3719 15.646C14.3866 15.6577 14.4056 15.6636 14.4246 15.6606L14.5796 15.6446C14.6688 15.6928 14.7683 15.7177 14.8678 15.7177C14.9146 15.7177 14.9614 15.7118 15.0067 15.7016C15.1281 15.6738 15.2363 15.608 15.3168 15.5129L15.3358 15.491L15.3665 15.5027C15.3738 15.5056 15.3811 15.5071 15.3885 15.5085C15.5333 15.5188 15.7029 15.4413 15.8038 15.3184L16.1563 14.8752C16.1666 14.8621 16.1724 14.8445 16.1724 14.8284L16.1666 14.1351Z" fill="url(#paint9_linear_1_151)"/>
<path d="M15.6517 13.7109V13.7373L15.6488 13.8338C15.5698 13.8309 15.4777 13.8455 15.4162 13.8865C15.3504 13.926 15.3241 13.9903 15.3241 14.0839L15.3065 14.6543L15.2963 14.941C15.3021 14.9922 15.2714 15.0536 15.2393 15.0844L15.15 15.1955L14.7932 15.6431L15.1193 15.1736L15.2027 15.0551C15.2334 15.0156 15.2451 14.9864 15.2407 14.9396L15.2319 14.6529L15.2129 14.0795C15.21 14.0342 15.2129 13.9698 15.2334 13.9157C15.2524 13.8631 15.3329 13.6978 15.6122 13.6758C15.6327 13.6773 15.6488 13.689 15.6517 13.7109Z" fill="#EDA600"/>
<path d="M16.1695 14.0766V14.0868L16.1681 14.1834C16.1154 14.1819 16.0525 14.1951 16.0028 14.2214C15.9531 14.2477 15.9151 14.2887 15.8946 14.3413C15.8858 14.3677 15.8799 14.3984 15.877 14.4291L15.8668 14.5359C15.8565 14.6075 15.8478 14.6748 15.8229 14.7523L15.8214 14.7582L15.8171 14.764L15.7308 14.8664L15.3987 15.3857L15.6752 14.8299L15.6766 14.8269L15.7483 14.7231C15.76 14.6646 15.7644 14.5944 15.7673 14.5271V14.4247C15.7688 14.3852 15.7732 14.3443 15.7834 14.3048C15.8068 14.2229 15.8653 14.1497 15.9355 14.1059C15.9926 14.0737 16.0496 14.0503 16.1125 14.04C16.1169 14.0386 16.1227 14.0371 16.1286 14.0371H16.1301C16.1505 14.0386 16.1666 14.0547 16.1695 14.0766Z" fill="#EDA600"/>
<path d="M13.9448 14.8343C13.9448 14.8343 14.4904 14.2975 15.2232 14.3545C15.2232 14.3545 14.9131 14.3399 14.9672 14.8781C14.9672 14.8781 14.7507 14.6602 14.448 15.2277C14.4465 15.2292 14.2725 14.7655 13.9448 14.8343Z" fill="url(#paint10_linear_1_151)"/>
<path d="M15.2466 14.4554C15.2027 14.4467 15.1442 14.4525 15.1076 14.4745C15.0696 14.4964 15.0462 14.5388 15.0374 14.5944C15.0286 14.6514 15.0257 14.7216 15.0199 14.7845L15.0125 14.8811C15.0082 14.9132 15.0111 14.944 15.0008 14.9864C14.9891 15.0273 14.9614 15.058 14.9423 15.08L14.8809 15.156L14.7566 15.3067L14.5094 15.6095L14.7273 15.2848L14.837 15.1224L14.8911 15.0405C14.9102 15.0112 14.9262 14.9908 14.9292 14.9674C14.9336 14.9469 14.9292 14.9118 14.9292 14.8781L14.9277 14.7801C14.9277 14.7129 14.9233 14.6514 14.9262 14.5798C14.9292 14.5066 14.9614 14.4189 15.033 14.3662C15.1062 14.315 15.1837 14.3019 15.2685 14.3077L15.2466 14.4554Z" fill="#EDA600"/>
<path d="M14.9321 14.9513C14.8985 14.9352 14.8458 14.9249 14.8063 14.9337C14.7639 14.9396 14.7259 14.9659 14.6951 15.0025L14.4728 15.2774L14.4202 15.3433L14.3938 15.2643C14.3412 15.1034 14.2286 14.944 14.0662 14.8723C13.9024 14.7977 13.7064 14.827 13.5382 14.8986C13.7006 14.8153 13.8966 14.7655 14.0823 14.8313C14.173 14.8635 14.2549 14.9206 14.3207 14.9908C14.3865 15.0624 14.4392 15.1429 14.4772 15.2365L14.3982 15.2233L14.5986 14.9308C14.6381 14.8752 14.6995 14.8226 14.7741 14.805C14.8487 14.786 14.9189 14.7904 14.9935 14.8182L14.9321 14.9513Z" fill="#EDA600"/>
<path d="M0.838187 14.081C0.838187 14.0576 0.849888 14.0342 0.870365 14.021C0.889379 14.0079 0.914244 14.0035 0.937646 14.0123C0.946422 14.0152 1.1351 14.0825 1.2214 14.2653C1.22578 14.2741 1.22871 14.2843 1.22871 14.2946L1.24187 14.65C1.25942 14.6748 1.28575 14.7099 1.315 14.7509L1.36473 14.3063L1.35303 13.7066C1.35303 13.6861 1.36035 13.6656 1.37644 13.651C1.39106 13.6364 1.413 13.6291 1.43202 13.6305C1.4364 13.6305 1.49052 13.6349 1.55634 13.6569H1.57243C1.57682 13.6569 1.5812 13.6583 1.58705 13.6583C1.59729 13.6583 1.60607 13.6598 1.61631 13.6612C1.62801 13.6627 1.63825 13.6642 1.64848 13.6671C1.65726 13.6686 1.66457 13.6715 1.67335 13.6729C1.68359 13.6759 1.69236 13.6788 1.7026 13.6832C1.70992 13.6861 1.71723 13.689 1.72454 13.6934C1.73332 13.6978 1.74063 13.7022 1.74941 13.708C1.75672 13.7124 1.76257 13.7168 1.76988 13.7212L1.79182 13.7388C1.79914 13.7446 1.80499 13.7505 1.81084 13.7563L1.82839 13.7739C1.8357 13.7812 1.84155 13.7885 1.8474 13.7958C1.85179 13.8017 1.85618 13.8075 1.86057 13.8119C1.86788 13.8207 1.87519 13.8309 1.88104 13.8397C1.88397 13.8426 1.88543 13.847 1.88836 13.8499C1.97758 13.9801 2.04486 14.1366 2.17942 14.1878C2.20282 14.1966 2.22769 14.2039 2.25401 14.2097C2.49827 14.2609 2.81713 14.1658 3.00142 14.3779L2.99996 14.3809C3.00581 14.3867 3.01312 14.3926 3.01897 14.3999C3.0687 14.4598 3.26615 14.3472 3.26615 14.3472L3.63474 14.6061L3.67569 14.5666L3.8044 14.4452L3.97407 14.4862L3.25592 15.1721L2.63284 15.5919C2.61821 15.6036 2.59919 15.6095 2.58018 15.6065L2.42514 15.5905C2.33592 15.6387 2.23646 15.6636 2.137 15.6636C2.0902 15.6636 2.0434 15.6577 1.99805 15.6475C1.87666 15.6197 1.76842 15.5539 1.68798 15.4588L1.66896 15.4369L1.63825 15.4486C1.63093 15.4515 1.62362 15.453 1.61631 15.4544C1.47297 15.4647 1.30184 15.3871 1.20092 15.2643L0.848425 14.8211C0.838187 14.8079 0.832336 14.7904 0.832336 14.7743L0.838187 14.081Z" fill="url(#paint11_linear_1_151)"/>
<path d="M0.836731 14.0225V14.0327L0.838194 14.1293C0.890848 14.1278 0.953741 14.141 1.00347 14.1673C1.0532 14.1936 1.09123 14.2346 1.11171 14.2872C1.12048 14.3136 1.12633 14.3443 1.12926 14.375L1.1395 14.4818C1.14973 14.5534 1.15851 14.6207 1.18337 14.6982L1.18484 14.7041L1.18923 14.7099L1.27552 14.8123L1.60754 15.3315L1.3311 14.7757L1.32964 14.7728L1.25797 14.669C1.24627 14.6105 1.24188 14.5403 1.23895 14.473V14.3706C1.23749 14.3311 1.2331 14.2902 1.22287 14.2507C1.19946 14.1688 1.14096 14.0956 1.06929 14.0517C1.01225 14.0196 0.955204 13.9962 0.892311 13.9859C0.887923 13.9845 0.882072 13.983 0.876222 13.983H0.874759C0.854283 13.9845 0.838194 14.0006 0.836731 14.0225Z" fill="#EDA600"/>
<path d="M3.05993 14.7802C3.05993 14.7802 2.51436 14.2434 1.78159 14.3004C1.78159 14.3004 2.09166 14.2858 2.03755 14.824C2.03755 14.824 2.25402 14.6061 2.55678 15.1736C2.55678 15.1751 2.7323 14.7114 3.05993 14.7802Z" fill="url(#paint12_linear_1_151)"/>
<path d="M1.75818 14.3998C1.80205 14.3911 1.86056 14.3969 1.89713 14.4189C1.93515 14.4408 1.95856 14.4832 1.96733 14.5388C1.97611 14.5958 1.97903 14.666 1.98488 14.7289L1.9922 14.8255C1.99658 14.8576 1.99366 14.8884 2.0039 14.9308C2.0156 14.9717 2.04339 15.0024 2.0624 15.0244L2.12383 15.1004L2.24816 15.2511L2.49534 15.5539L2.27741 15.2291L2.16771 15.0668L2.1136 14.9849C2.09458 14.9556 2.07849 14.9352 2.07557 14.9118C2.07118 14.8913 2.07557 14.8562 2.07557 14.8225L2.07703 14.7245C2.07703 14.6573 2.08142 14.5958 2.07849 14.5242C2.07557 14.451 2.04339 14.3633 1.97172 14.3106C1.89859 14.2594 1.82107 14.2463 1.73624 14.2521L1.75818 14.3998Z" fill="#EDA600"/>
<path d="M2.07116 14.8957C2.1048 14.8796 2.15746 14.8693 2.19695 14.8781C2.23937 14.884 2.27739 14.9103 2.30811 14.9469L2.53043 15.2218L2.58308 15.2877L2.60941 15.2087C2.66207 15.0478 2.77469 14.8884 2.93704 14.8167C3.10086 14.7421 3.29685 14.7713 3.46505 14.843C3.3027 14.7596 3.10671 14.7099 2.92095 14.7757C2.83027 14.8079 2.74836 14.865 2.68254 14.9352C2.61672 15.0068 2.56407 15.0873 2.52458 15.1809L2.60356 15.1677L2.40318 14.8752C2.36369 14.8196 2.30226 14.767 2.22766 14.7494C2.15307 14.7304 2.08286 14.7348 2.00827 14.7626L2.07116 14.8957Z" fill="#EDA600"/>
<path d="M1.35303 13.6627V13.689L1.35595 13.7855C1.43493 13.7826 1.52708 13.7972 1.58851 13.8382C1.65433 13.8777 1.68066 13.942 1.68066 14.0356L1.69821 14.6061L1.70845 14.8927C1.7026 14.9439 1.73331 15.0054 1.76549 15.0361L1.85471 15.1472L2.21159 15.5948L1.88543 15.1253L1.80206 15.0068C1.77134 14.9673 1.75964 14.9381 1.76403 14.8913L1.7728 14.6046L1.79182 14.0312C1.79474 13.9859 1.79182 13.9216 1.77134 13.8674C1.75233 13.8148 1.67188 13.6495 1.39252 13.6276C1.37204 13.629 1.35595 13.6422 1.35303 13.6627Z" fill="#EDA600"/>
<path d="M10.9684 5.34473C10.8806 5.18385 10.9932 5.02149 11.1849 4.81819C11.4891 4.49787 11.8211 3.75339 11.5125 2.99867C11.5139 2.99429 11.4525 2.86704 11.454 2.86265L11.3267 2.8568C11.2858 2.85095 9.89481 2.84802 8.50239 2.84802C7.10996 2.84802 5.719 2.85095 5.67805 2.8568C5.67805 2.8568 5.49083 2.99429 5.49229 2.99867C5.18514 3.75485 5.5157 4.49787 5.81992 4.81819C6.01153 5.02003 6.12415 5.18385 6.03639 5.34473C5.95156 5.50124 5.6956 5.52318 5.6956 5.52318C5.6956 5.52318 5.7541 5.6826 5.89598 5.7689C6.02762 5.84788 6.18704 5.86689 6.29967 5.86982C6.29967 5.86982 6.73407 6.47096 7.87053 6.47096H8.50239H9.13425C10.2692 6.47096 10.7051 5.86982 10.7051 5.86982C10.8163 5.86689 10.9772 5.84788 11.1073 5.7689C11.2492 5.6826 11.3077 5.52318 11.3077 5.52318C11.3077 5.52318 11.0532 5.50124 10.9684 5.34473Z" fill="#543930"/>
<path d="M8.50089 6.47095V5.80399L10.5193 5.64456L10.7021 5.86981C10.7021 5.86981 10.2677 6.47095 9.13128 6.47095H8.50089Z" fill="url(#paint13_radial_1_151)"/>
<path d="M10.6992 5.57873C10.3965 5.11946 11.0678 4.94833 11.0678 4.94833C10.9508 5.09313 10.8981 5.22038 10.9669 5.34471C11.0517 5.50121 11.3062 5.52315 11.3062 5.52315C11.3062 5.52315 10.961 5.83176 10.6992 5.57873Z" fill="url(#paint14_radial_1_151)"/>
<path d="M11.5139 2.99866C11.8138 3.72998 11.4978 4.48323 11.2024 4.80062C11.1614 4.8445 10.9903 5.01271 10.9508 5.14873C10.9508 5.14873 10.2765 4.20826 10.0747 3.65685C10.0338 3.54569 9.99719 3.43014 9.9928 3.31167C9.98841 3.22244 10.003 3.11714 10.0542 3.04108C10.1171 2.94893 11.4788 2.92114 11.4788 2.92114C11.4774 2.92261 11.5139 2.99866 11.5139 2.99866Z" fill="url(#paint15_radial_1_151)"/>
<path d="M5.49226 2.99863C5.19242 3.72995 5.50835 4.4832 5.8038 4.80059C5.84475 4.84447 6.01588 5.01267 6.05537 5.1487C6.05537 5.1487 6.72965 4.20823 6.93149 3.65681C6.97244 3.54565 7.00901 3.43011 7.0134 3.31163C7.01778 3.22241 7.00316 3.1171 6.95197 3.04105C6.88907 2.9489 6.81594 2.9723 6.70917 2.9723C6.50586 2.9723 5.61512 2.91965 5.54638 2.91965C5.54784 2.92257 5.49226 2.99863 5.49226 2.99863Z" fill="url(#paint16_radial_1_151)"/>
<path d="M8.50533 6.47095V5.80399L6.4869 5.64456L6.30261 5.86981C6.30261 5.86981 6.73701 6.47095 7.87348 6.47095H8.50533Z" fill="url(#paint17_radial_1_151)"/>
<path d="M6.307 5.57873C6.60977 5.11946 5.93842 4.94833 5.93842 4.94833C6.05543 5.09313 6.10808 5.22038 6.03934 5.34471C5.95451 5.50121 5.69855 5.52315 5.69855 5.52315C5.69855 5.52315 6.04665 5.83176 6.307 5.57873Z" fill="url(#paint18_radial_1_151)"/>
<path d="M8.50239 6.02338H7.80325V6.76347C7.80325 7.09841 8.087 7.369 8.43804 7.369H8.56528C8.91632 7.369 9.20007 7.09841 9.20007 6.76347V6.02338H8.50239Z" fill="#E59600"/>
<path d="M10.4243 3.27802H9.90649H7.09824H6.58046C6.16654 3.27802 5.82721 3.63929 5.82721 4.081C5.82721 4.52271 6.16654 4.88398 6.58046 4.88398H7.09824H9.90649H10.4243C10.8382 4.88398 11.1775 4.52271 11.1775 4.081C11.1775 3.63929 10.8382 3.27802 10.4243 3.27802Z" fill="#E59600"/>
<path d="M8.50235 0.510742C7.27813 0.510742 6.14459 1.8198 6.14459 3.70367C6.14459 5.5773 7.31177 6.50314 8.50235 6.50314C9.69294 6.50314 10.8601 5.5773 10.8601 3.70367C10.8601 1.81833 9.72658 0.510742 8.50235 0.510742Z" fill="#FFCA28"/>
<path d="M7.85735 3.17268C7.79154 3.08492 7.63796 2.95767 7.33958 2.95767C7.04267 2.95767 6.88909 3.08492 6.82181 3.17268C6.79256 3.21217 6.79987 3.25605 6.82035 3.28384C6.83936 3.3087 6.89494 3.33211 6.95637 3.31163C7.0178 3.29115 7.13774 3.22826 7.33958 3.2268C7.54143 3.22826 7.66136 3.28969 7.72279 3.31163C7.78422 3.33211 7.8398 3.3087 7.85882 3.28384C7.87929 3.25605 7.88661 3.21217 7.85735 3.17268Z" fill="#6D4C41"/>
<path d="M10.1815 3.17268C10.1157 3.08492 9.96209 2.95767 9.66371 2.95767C9.36533 2.95767 9.21322 3.08492 9.14594 3.17268C9.11669 3.21217 9.124 3.25605 9.14448 3.28384C9.16349 3.3087 9.21907 3.33211 9.2805 3.31163C9.34193 3.29115 9.46187 3.22826 9.66371 3.2268C9.86555 3.22826 9.98549 3.28969 10.0469 3.31163C10.1084 3.33211 10.1639 3.3087 10.1829 3.28384C10.2034 3.25605 10.2107 3.21217 10.1815 3.17268Z" fill="#6D4C41"/>
<path d="M8.77441 4.51833C8.7671 4.51541 8.75978 4.51394 8.75247 4.51248H8.25518C8.24786 4.51394 8.24055 4.51541 8.23324 4.51833C8.1879 4.53588 8.16303 4.58269 8.18497 4.63242C8.20691 4.68215 8.30491 4.8211 8.50529 4.8211C8.7042 4.8211 8.80366 4.68068 8.8256 4.63242C8.84315 4.58269 8.81829 4.53588 8.77441 4.51833Z" fill="#E59600"/>
<path d="M9.08741 5.08582C8.86655 5.21746 8.14108 5.21746 7.91876 5.08582C7.79151 5.00977 7.66134 5.12531 7.714 5.24086C7.76519 5.35495 8.16156 5.61822 8.50382 5.61822C8.84607 5.61822 9.23659 5.35495 9.28925 5.24086C9.3419 5.12678 9.21466 5.01123 9.08741 5.08582Z" fill="#795548"/>
<path d="M7.35568 3.97274C7.21088 3.97274 7.08071 3.93764 6.99149 3.88206C6.95346 3.85865 6.93006 3.87182 6.93737 3.91716C6.9637 4.09121 7.14068 4.22724 7.35568 4.22724C7.57069 4.22724 7.74767 4.09268 7.77399 3.91716C7.78131 3.87182 7.75791 3.85719 7.71988 3.88206C7.62919 3.93764 7.50048 3.97274 7.35568 3.97274Z" fill="#404040"/>
<path d="M9.64908 3.97274C9.50428 3.97274 9.3741 3.93764 9.28488 3.88206C9.24685 3.85865 9.22345 3.87182 9.23077 3.91716C9.25709 4.09121 9.43407 4.22724 9.64908 4.22724C9.86408 4.22724 10.0411 4.09268 10.0674 3.91716C10.0747 3.87182 10.0513 3.85719 10.0133 3.88206C9.92259 3.93764 9.79388 3.97274 9.64908 3.97274Z" fill="#404040"/>
<path d="M11.3457 1.47751C11.1731 1.21716 10.787 0.866133 10.4403 0.844193C10.3848 0.510714 10.0279 0.228426 9.6827 0.118728C8.74808 -0.178186 8.13963 0.153831 7.812 0.332272C7.74325 0.368838 7.30593 0.613098 6.99877 0.437582C6.80717 0.327885 6.81009 0.0324331 6.81009 0.0324331C6.81009 0.0324331 6.20749 0.262066 6.41372 0.901236C6.20749 0.910012 5.93544 0.996307 5.7921 1.28737C5.62098 1.63255 5.68241 1.92215 5.73067 2.0611C5.55223 2.21175 5.32845 2.53353 5.48202 2.95185C5.59757 3.26631 6.05976 3.41111 6.05976 3.41111C6.02759 3.97715 6.1329 4.32526 6.18848 4.46567C6.19871 4.49053 6.23382 4.48761 6.23967 4.46274C6.30987 4.18192 6.54828 3.20488 6.52488 3.03522C6.52488 3.03522 7.3264 2.87579 8.09136 2.31414C8.2464 2.20005 8.41606 2.10206 8.5945 2.03039C9.55399 1.64864 9.75583 2.29951 9.75583 2.29951C9.75583 2.29951 10.4213 2.17226 10.6217 3.09518C10.6963 3.44183 10.749 3.99616 10.7914 4.38376C10.7943 4.41155 10.8323 4.4174 10.8426 4.39107C10.9098 4.2375 11.0444 3.93181 11.0766 3.62027C11.0883 3.51057 11.3837 3.36577 11.5095 2.8948C11.6792 2.2688 11.4715 1.66619 11.3457 1.47751Z" fill="#543930"/>
<path d="M11.0737 3.62464C11.0854 3.51494 11.3808 3.37014 11.5066 2.89918C11.5198 2.84945 11.5315 2.79825 11.5417 2.74706C11.6441 2.17517 11.4598 1.65009 11.3442 1.4775C11.1848 1.23616 10.8426 0.920236 10.5179 0.854418C10.4901 0.85003 10.4623 0.847105 10.4359 0.845642C10.4359 0.845642 10.4594 0.997756 10.3979 1.11915C10.3189 1.27566 10.1566 1.31368 10.1566 1.31368C11.0049 2.15909 10.9449 2.867 11.0737 3.62464Z" fill="url(#paint19_radial_1_151)"/>
<path d="M8.01676 0.225477C7.93924 0.263505 7.8705 0.300071 7.81199 0.332249C7.74325 0.368815 7.30592 0.613074 6.99877 0.437559C6.81009 0.330786 6.81009 0.0441107 6.81009 0.0324097C6.7238 0.14357 6.46052 0.934853 7.2284 0.987508C7.56042 1.00945 7.76373 0.721309 7.88512 0.47705C7.93047 0.389292 7.99921 0.26058 8.01676 0.225477Z" fill="url(#paint20_radial_1_151)"/>
<path d="M9.58617 0.089462C10.1039 0.229875 10.3555 0.493148 10.4389 0.84418C10.4637 0.946564 10.493 1.90898 8.65594 0.81639C7.97289 0.409778 8.15864 0.15528 8.23909 0.126028C8.55355 0.0134052 9.00697 -0.0670395 9.58617 0.089462Z" fill="url(#paint21_radial_1_151)"/>
<path d="M6.80867 0.0338723C6.80721 0.0338723 6.80574 0.0353349 6.80428 0.0353349C6.73846 0.0631249 6.22215 0.301534 6.41522 0.901213L6.96517 0.990433C6.47812 0.497526 6.81159 0.0324097 6.81159 0.0324097L6.80867 0.0338723Z" fill="url(#paint22_radial_1_151)"/>
<path d="M6.75451 0.956827L6.41518 0.90271C6.40202 0.90271 6.35668 0.907098 6.33181 0.910023C6.14021 0.936351 5.91496 1.03581 5.79357 1.28884C5.66193 1.56089 5.66632 1.79638 5.70142 1.95142C5.71166 2.00407 5.7336 2.06258 5.7336 2.06258C5.7336 2.06258 5.9018 1.90315 6.30256 1.89291L6.75451 0.956827Z" fill="url(#paint23_radial_1_151)"/>
<path d="M5.71607 2.07571C5.54787 2.2249 5.32262 2.55545 5.48936 2.96645C5.61515 3.27653 6.06125 3.41109 6.06125 3.41109C6.06125 3.41255 6.15047 3.43888 6.19581 3.43888L6.30112 1.89142C6.08758 1.89142 5.88135 1.95577 5.74825 2.04792C5.74971 2.05085 5.71461 2.07278 5.71607 2.07571Z" fill="url(#paint24_radial_1_151)"/>
<defs>
<linearGradient id="paint0_linear_1_151" x1="12.3572" y1="8.7857" x2="12.3572" y2="15.3474" gradientUnits="userSpaceOnUse">
<stop stop-color="#FFB300"/>
<stop offset="0.5" stop-color="#FFCA28"/>
</linearGradient>
<linearGradient id="paint1_linear_1_151" x1="4.58081" y1="8.7857" x2="4.58081" y2="15.3474" gradientUnits="userSpaceOnUse">
<stop stop-color="#FFB300"/>
<stop offset="0.5" stop-color="#FFCA28"/>
</linearGradient>
<linearGradient id="paint2_linear_1_151" x1="8.50245" y1="6.51555" x2="8.50245" y2="13.6023" gradientUnits="userSpaceOnUse">
<stop stop-color="#F78C1F"/>
<stop offset="1" stop-color="#ED6D23"/>
</linearGradient>
<linearGradient id="paint3_linear_1_151" x1="6.69889" y1="17.2448" x2="6.69889" y2="13.6922" gradientUnits="userSpaceOnUse">
<stop stop-color="#FFB300"/>
<stop offset="0.3773" stop-color="#FFCA28"/>
</linearGradient>
<linearGradient id="paint4_linear_1_151" x1="3.01036" y1="15.219" x2="3.74521" y2="16.1259" gradientUnits="userSpaceOnUse">
<stop stop-color="#FFB300"/>
<stop offset="0.5" stop-color="#FFCA28" stop-opacity="0"/>
</linearGradient>
<linearGradient id="paint5_linear_1_151" x1="4.38409" y1="15.8331" x2="15.5239" y2="15.8331" gradientUnits="userSpaceOnUse">
<stop offset="0.7779" stop-color="#FFCA28"/>
<stop offset="1" stop-color="#FFB300"/>
</linearGradient>
<linearGradient id="paint6_linear_1_151" x1="6.23618" y1="15.7225" x2="5.78984" y2="16.5598" gradientUnits="userSpaceOnUse">
<stop stop-color="#FFB300"/>
<stop offset="0.5" stop-color="#FFCA28" stop-opacity="0"/>
</linearGradient>
<linearGradient id="paint7_linear_1_151" x1="15.2928" y1="16.8897" x2="4.9851" y2="14.6957" gradientUnits="userSpaceOnUse">
<stop stop-color="#FFB300"/>
<stop offset="0.3379" stop-color="#FFCA28"/>
</linearGradient>
<linearGradient id="paint8_linear_1_151" x1="10.8164" y1="15.2795" x2="10.5479" y2="13.5168" gradientUnits="userSpaceOnUse">
<stop offset="0.078" stop-color="#FFB300"/>
<stop offset="0.6927" stop-color="#FFCA28"/>
</linearGradient>
<linearGradient id="paint9_linear_1_151" x1="15.7189" y1="15.1726" x2="14.2148" y2="14.1376" gradientUnits="userSpaceOnUse">
<stop stop-color="#FFB300"/>
<stop offset="0.5" stop-color="#FFCA28"/>
</linearGradient>
<linearGradient id="paint10_linear_1_151" x1="14.7837" y1="14.9168" x2="14.5457" y2="14.5339" gradientUnits="userSpaceOnUse">
<stop stop-color="#FFB300"/>
<stop offset="1" stop-color="#FFCA28" stop-opacity="0"/>
</linearGradient>
<linearGradient id="paint11_linear_1_151" x1="1.18683" y1="14.9386" x2="3.33952" y2="14.0968" gradientUnits="userSpaceOnUse">
<stop stop-color="#FFB300"/>
<stop offset="0.5" stop-color="#FFCA28"/>
</linearGradient>
<linearGradient id="paint12_linear_1_151" x1="2.19772" y1="14.8173" x2="2.52371" y2="14.4137" gradientUnits="userSpaceOnUse">
<stop stop-color="#FFB300"/>
<stop offset="1" stop-color="#FFCA28" stop-opacity="0"/>
</linearGradient>
<radialGradient id="paint13_radial_1_151" cx="0" cy="0" r="1" gradientUnits="userSpaceOnUse" gradientTransform="translate(9.53261 5.50733) scale(1.65451 0.812697)">
<stop offset="0.7275" stop-color="#6D4C41" stop-opacity="0"/>
<stop offset="1" stop-color="#6D4C41"/>
</radialGradient>
<radialGradient id="paint14_radial_1_151" cx="0" cy="0" r="1" gradientUnits="userSpaceOnUse" gradientTransform="translate(11.1628 5.26099) rotate(154.924) scale(0.488918 0.362708)">
<stop offset="0.6628" stop-color="#6D4C41"/>
<stop offset="1" stop-color="#6D4C41" stop-opacity="0"/>
</radialGradient>
<radialGradient id="paint15_radial_1_151" cx="0" cy="0" r="1" gradientUnits="userSpaceOnUse" gradientTransform="translate(9.89539 3.87837) rotate(-94.2783) scale(2.14763 1.78991)">
<stop offset="0.7247" stop-color="#6D4C41" stop-opacity="0"/>
<stop offset="1" stop-color="#6D4C41"/>
</radialGradient>
<radialGradient id="paint16_radial_1_151" cx="0" cy="0" r="1" gradientUnits="userSpaceOnUse" gradientTransform="translate(7.11108 3.87826) rotate(-85.7217) scale(2.14763 1.78991)">
<stop offset="0.7247" stop-color="#6D4C41" stop-opacity="0"/>
<stop offset="1" stop-color="#6D4C41"/>
</radialGradient>
<radialGradient id="paint17_radial_1_151" cx="0" cy="0" r="1" gradientUnits="userSpaceOnUse" gradientTransform="translate(7.47371 5.50733) rotate(180) scale(1.65451 0.812697)">
<stop offset="0.7275" stop-color="#6D4C41" stop-opacity="0"/>
<stop offset="1" stop-color="#6D4C41"/>
</radialGradient>
<radialGradient id="paint18_radial_1_151" cx="0" cy="0" r="1" gradientUnits="userSpaceOnUse" gradientTransform="translate(5.84392 5.26111) rotate(25.0761) scale(0.488918 0.362708)">
<stop offset="0.6628" stop-color="#6D4C41"/>
<stop offset="1" stop-color="#6D4C41" stop-opacity="0"/>
</radialGradient>
<radialGradient id="paint19_radial_1_151" cx="0" cy="0" r="1" gradientUnits="userSpaceOnUse" gradientTransform="translate(9.78811 2.745) rotate(72.0851) scale(2.51736 1.86782)">
<stop offset="0.6985" stop-color="#6D4C41" stop-opacity="0"/>
<stop offset="1" stop-color="#6D4C41"/>
</radialGradient>
<radialGradient id="paint20_radial_1_151" cx="0" cy="0" r="1" gradientUnits="userSpaceOnUse" gradientTransform="translate(7.3341 0.000499311) rotate(28.2026) scale(0.660055 0.782633)">
<stop offset="0.58" stop-color="#6D4C41"/>
<stop offset="1" stop-color="#6D4C41" stop-opacity="0"/>
</radialGradient>
<radialGradient id="paint21_radial_1_151" cx="0" cy="0" r="1" gradientUnits="userSpaceOnUse" gradientTransform="translate(8.80946 1.19875) rotate(-157.19) scale(2.06432 1.16015)">
<stop offset="0.6985" stop-color="#6D4C41" stop-opacity="0"/>
<stop offset="1" stop-color="#6D4C41"/>
</radialGradient>
<radialGradient id="paint22_radial_1_151" cx="0" cy="0" r="1" gradientUnits="userSpaceOnUse" gradientTransform="translate(7.06902 0.602522) scale(0.605851 0.741138)">
<stop offset="0.7016" stop-color="#6D4C41" stop-opacity="0"/>
<stop offset="1" stop-color="#6D4C41"/>
</radialGradient>
<radialGradient id="paint23_radial_1_151" cx="0" cy="0" r="1" gradientUnits="userSpaceOnUse" gradientTransform="translate(6.98533 1.67213) rotate(-164.942) scale(1.1363 1.06337)">
<stop offset="0.6605" stop-color="#6D4C41" stop-opacity="0"/>
<stop offset="1" stop-color="#6D4C41"/>
</radialGradient>
<radialGradient id="paint24_radial_1_151" cx="0" cy="0" r="1" gradientUnits="userSpaceOnUse" gradientTransform="translate(6.71646 2.76899) rotate(7.83355) scale(1.19297 1.67633)">
<stop offset="0.5981" stop-color="#6D4C41" stop-opacity="0"/>
<stop offset="1" stop-color="#6D4C41"/>
</radialGradient>
</defs>
</svg>
