<svg width="20" height="20" viewBox="0 0 20 20" fill="none" xmlns="http://www.w3.org/2000/svg">
<path d="M1.98945 12.9908C2.03783 11.4186 1.15311 10.8267 0.0742132 10.4355C-0.284315 11.7806 0.705116 12.8999 1.98945 12.9908Z" fill="#42ADE2"/>
<path d="M2.23366 5.97073C2.92156 4.54685 2.35163 3.66081 1.51793 2.88977C0.64282 3.98915 1.0928 5.39478 2.23366 5.97073Z" fill="#42ADE2"/>
<path d="M2.62169 9.93445C2.57431 8.36321 3.45804 7.76868 4.5376 7.37915C4.8948 8.72359 3.90603 9.84251 2.62169 9.93445Z" fill="#42ADE2"/>
<path d="M2.62169 12.3578C2.57431 10.7865 3.45804 10.1936 4.5376 9.8031C4.8948 11.1472 3.90603 12.2665 2.62169 12.3578Z" fill="#42ADE2"/>
<path d="M2.62169 7.51222C2.57431 5.94035 3.45804 5.34581 4.5376 4.95532C4.8948 6.30104 3.90603 7.41964 2.62169 7.51222Z" fill="#42ADE2"/>
<path d="M1.98945 10.5677C2.03783 8.99651 1.15311 8.40198 0.0742132 8.01245C-0.284315 9.35689 0.705116 10.4761 1.98945 10.5677Z" fill="#42ADE2"/>
<path d="M1.98945 8.14555C2.03783 6.57336 1.15311 5.97914 0.0742132 5.58801C-0.284315 6.93437 0.705116 8.05201 1.98945 8.14555Z" fill="#42ADE2"/>
<path d="M14.1731 19.9999H5.45477L9.81443 12.6976L14.1731 19.9999ZM7.18677 19.0329H12.4414L9.8141 14.6331L7.18677 19.0329Z" fill="black"/>
<path d="M0.716729 15.0255L19.1869 10.1679L18.9125 9.18677L0.44104 14.0449L0.716729 15.0255Z" fill="black"/>
<path d="M13.7499 0C13.7499 0 13.8851 2.5758 16.2205 2.35733C16.2205 2.35733 16.484 0.205333 13.7499 0Z" fill="#ED6D23"/>
<path d="M16.1951 8.37775C15.9512 8.71153 15.5443 8.92744 15.0887 8.92744C14.7166 8.92744 14.3521 8.7583 14.1062 8.52126C13.6032 7.99078 12.9511 6.80491 12.9511 6.80491C12.5856 6.08768 12.3898 5.53287 12.3898 4.97196C12.3898 3.77712 13.3901 2.74084 14.6294 2.74084C15.2398 2.74084 15.7908 2.97725 16.1954 3.35909C16.6003 2.97693 17.1504 2.74084 17.7607 2.74084C18.9997 2.74084 20 3.77712 20 4.97196C20 5.53287 19.8039 6.08768 19.4387 6.80491C19.4387 6.80491 18.7866 7.99046 18.2836 8.52126C18.0377 8.7583 17.6732 8.92744 17.3008 8.92744C16.8445 8.92712 16.4386 8.71153 16.1951 8.37775Z" fill="#ED6D23"/>
</svg>
