<svg width="16" height="16" viewBox="0 0 16 16" fill="none" xmlns="http://www.w3.org/2000/svg">
<path d="M8.05397 0.157715C2.13906 0.157715 2.18666 4.88629 2.18666 4.96111C2.18666 8.02371 2.45781 12.3495 3.8756 14.0517C4.4381 14.7263 5.52416 14.7637 5.52416 14.7637L7.97175 14.7612L10.4194 14.7649C10.4194 14.7649 11.5069 14.7275 12.0679 14.0529C13.4857 12.3508 13.7569 8.02496 13.7569 4.96236C13.7554 4.88629 13.9689 0.157715 8.05397 0.157715Z" fill="#312D2D"/>
<path d="M8.05397 0.157715C2.13906 0.157715 2.18666 4.88629 2.18666 4.96111C2.18666 8.02371 2.45781 12.3495 3.8756 14.0517C4.4381 14.7263 5.52416 14.7637 5.52416 14.7637L7.97175 14.7612L10.4194 14.7649C10.4194 14.7649 11.5069 14.7275 12.0679 14.0529C13.4857 12.3508 13.7569 8.02496 13.7569 4.96236C13.7554 4.88629 13.9689 0.157715 8.05397 0.157715Z" fill="url(#paint0_radial_87_154)"/>
<path d="M7.99055 11.615C7.98478 11.615 7.97757 11.615 7.9718 11.615C4.29536 11.6187 0.471802 12.5228 0.471802 14.7399V15.1066H0.688148H0.904494H15.0391H15.2555H15.4718V14.7399C15.4718 12.65 11.6843 11.615 7.99055 11.615Z" fill="#ED6D23"/>
<path d="M6.66217 10.8768V12.1213C6.66217 12.6837 7.16121 13.1401 7.97179 13.1401C8.78236 13.1401 9.2814 12.6837 9.2814 12.1213V10.8768H6.66217Z" fill="#EDC391"/>
<path d="M7.97179 1.64404C5.49102 1.64404 3.19342 3.23894 3.19342 6.62077C3.19342 9.33671 5.13909 10.9441 6.83236 11.4628C7.23621 11.5863 7.62563 11.6486 7.97179 11.6486C8.31505 11.6486 8.70304 11.5875 9.104 11.4653C10.8002 10.9491 12.7502 9.3417 12.7502 6.62202C12.7502 3.23894 10.4526 1.64404 7.97179 1.64404Z" fill="#F9DDBD"/>
<path d="M9.1718 9.13856C8.71747 9.37174 7.22901 9.37174 6.77613 9.13856C6.51507 9.00513 6.24968 9.20964 6.35786 9.41414C6.46459 9.61491 7.27661 10.0825 7.97757 10.0825C8.67853 10.0825 9.48045 9.61491 9.58718 9.41414C9.69536 9.20964 9.43141 9.00388 9.1718 9.13856Z" fill="#444444"/>
<path d="M8.52853 8.13095C8.51267 8.12596 8.49824 8.12222 8.48238 8.12097H7.46122C7.44536 8.12222 7.42949 8.12596 7.41507 8.13095C7.32276 8.16337 7.27228 8.24567 7.31555 8.33421C7.35882 8.42274 7.56219 8.66965 7.9718 8.66965C8.38142 8.66965 8.58478 8.4215 8.62805 8.33421C8.67132 8.24567 8.62084 8.16337 8.52853 8.13095Z" fill="#DBA689"/>
<path d="M5.61074 7.16322C5.31362 7.16322 5.04824 7.10087 4.86362 7.00236C4.78429 6.95996 4.73814 6.9849 4.75256 7.06471C4.80593 7.37396 5.17083 7.61339 5.61074 7.61339C6.05208 7.61339 6.41554 7.37396 6.46891 7.06471C6.48333 6.9849 6.43718 6.95996 6.35785 7.00236C6.17324 7.10087 5.90785 7.16322 5.61074 7.16322Z" fill="#312D2D"/>
<path d="M10.3156 7.16322C10.0185 7.16322 9.75307 7.10087 9.56845 7.00236C9.48913 6.95996 9.44297 6.9849 9.4574 7.06471C9.5122 7.37396 9.87567 7.61339 10.3156 7.61339C10.7555 7.61339 11.1204 7.37396 11.1737 7.06471C11.1882 6.9849 11.142 6.95996 11.0627 7.00236C10.8781 7.10087 10.6112 7.16322 10.3156 7.16322Z" fill="#312D2D"/>
<path d="M6.67224 5.85642C6.53811 5.70304 6.22946 5.48108 5.62946 5.48108C5.02946 5.48108 4.71936 5.70429 4.58667 5.85642C4.52753 5.92376 4.54196 6.00232 4.58378 6.04971C4.62128 6.09335 4.73378 6.1345 4.85782 6.09834C4.98186 6.06218 5.22417 5.95369 5.62946 5.95119C6.03474 5.95369 6.27705 6.06218 6.40109 6.09834C6.52513 6.1345 6.63763 6.0946 6.67513 6.04971C6.71551 6.00232 6.72994 5.92376 6.67224 5.85642Z" fill="#454140"/>
<path d="M11.3583 5.85642C11.2242 5.70304 10.9156 5.48108 10.3156 5.48108C9.71555 5.48108 9.40545 5.70429 9.27276 5.85642C9.21363 5.92376 9.22805 6.00232 9.26988 6.04971C9.30738 6.09335 9.41988 6.1345 9.54392 6.09834C9.66796 6.06218 9.91026 5.95369 10.3156 5.95119C10.7208 5.95369 10.9631 6.06218 11.0872 6.09834C11.2112 6.1345 11.3237 6.0946 11.3612 6.04971C11.4031 6.00232 11.4175 5.92376 11.3583 5.85642Z" fill="#454140"/>
<path d="M8.05397 0.157715C2.13906 0.157715 2.18666 4.88629 2.18666 4.96111C2.18666 5.92877 2.21406 7.02238 2.29483 8.11848L3.26406 8.11599C3.25541 7.75187 3.55108 5.50106 4.42945 5.33022C7.65445 4.70298 9.47896 3.22406 9.47896 3.22406C9.95348 4.11939 11.4376 4.99353 11.9698 5.32648C12.4069 5.59957 12.541 7.63964 12.5323 8.11724H13.6444C13.6444 8.111 13.6472 8.10477 13.6472 8.09729C13.728 7.00617 13.754 5.92004 13.754 4.95862C13.7554 4.88629 13.9689 0.157715 8.05397 0.157715Z" fill="#312D2D"/>
<path d="M8.05397 0.157715C2.13906 0.157715 2.18666 4.88629 2.18666 4.96111C2.18666 5.92877 2.21406 7.02238 2.29483 8.11848L3.26406 8.11599C3.25541 7.75187 3.55108 5.50106 4.42945 5.33022C7.65445 4.70298 9.47896 3.22406 9.47896 3.22406C9.95348 4.11939 11.4376 4.99353 11.9698 5.32648C12.4069 5.59957 12.541 7.63964 12.5323 8.11724H13.6444C13.6444 8.111 13.6472 8.10477 13.6472 8.09729C13.728 7.00617 13.754 5.92004 13.754 4.95862C13.7554 4.88629 13.9689 0.157715 8.05397 0.157715Z" fill="url(#paint1_radial_87_154)"/>
<path d="M5.00067 3.75024C4.94009 3.64923 4.84778 3.57067 4.57807 3.53825C4.48 3.51581 4.05307 3.46593 3.72278 3.07936C3.51942 2.84119 3.3175 2.41222 3.37807 2.04062L3.75596 0.107788H3.63048H3.46317H2.01509H1.8925H1.72663L1.64586 1.65904C1.64586 1.65904 1.35596 3.12799 1.35596 3.13672L1.43096 5.07579L1.73961 7.39518C1.75548 7.56353 1.86509 7.72813 2.1723 7.72813C2.56605 7.72813 2.68288 7.43384 2.71894 7.02109L2.75644 5.02715C2.75644 4.76653 2.93528 4.52836 3.21076 4.42237C3.2973 4.3887 3.39394 4.37623 3.49346 4.37623C3.7098 4.37623 3.94202 4.43608 4.12519 4.47224C4.16702 4.47973 4.21173 4.48471 4.25932 4.48471C4.51317 4.48471 4.82182 4.36999 4.94875 4.19043C5.07278 4.01086 5.06269 3.85623 5.00067 3.75024Z" fill="url(#paint2_linear_87_154)"/>
<path d="M14.2978 1.65782L14.217 0.106567H14.0511H13.9271H12.4804H12.3131H12.1877L12.5655 2.0394C12.6261 2.41225 12.4242 2.84121 12.2208 3.07814C11.8905 3.46471 11.4636 3.51583 11.3655 3.53703C11.0973 3.56945 11.0035 3.64801 10.9429 3.74902C10.8795 3.85501 10.8708 4.00964 10.9949 4.18671C11.1218 4.36752 11.4304 4.481 11.6843 4.481C11.7319 4.481 11.7766 4.47726 11.8184 4.46853C12.0016 4.43237 12.2338 4.37251 12.4502 4.37251C12.5497 4.37251 12.6463 4.38498 12.7329 4.41865C13.0083 4.52464 13.1872 4.76282 13.1872 5.02344L13.2247 7.01737C13.2607 7.43013 13.3776 7.72442 13.7713 7.72442C14.0785 7.72442 14.1881 7.56106 14.204 7.39147L14.5127 5.07207L14.5877 3.13301C14.5877 3.12677 14.2978 1.65782 14.2978 1.65782Z" fill="url(#paint3_linear_87_154)"/>
<defs>
<radialGradient id="paint0_radial_87_154" cx="0" cy="0" r="1" gradientUnits="userSpaceOnUse" gradientTransform="translate(7.97178 7.08707) scale(6.85551 7.05386)">
<stop offset="0.7936" stop-color="#454140" stop-opacity="0"/>
<stop offset="1" stop-color="#454140"/>
</radialGradient>
<radialGradient id="paint1_radial_87_154" cx="0" cy="0" r="1" gradientUnits="userSpaceOnUse" gradientTransform="translate(8.01983 7.58958) scale(7.18096 7.53402)">
<stop offset="0.7945" stop-color="#454140" stop-opacity="0"/>
<stop offset="1" stop-color="#454140"/>
</radialGradient>
<linearGradient id="paint2_linear_87_154" x1="3.20093" y1="0.0959417" x2="3.20093" y2="7.59372" gradientUnits="userSpaceOnUse">
<stop offset="0.5988" stop-color="#F9DDBD"/>
<stop offset="1" stop-color="#FFD29C"/>
</linearGradient>
<linearGradient id="paint3_linear_87_154" x1="12.7428" y1="0.095968" x2="12.7428" y2="7.57791" gradientUnits="userSpaceOnUse">
<stop offset="0.5988" stop-color="#F9DDBD"/>
<stop offset="1" stop-color="#FFD29C"/>
</linearGradient>
</defs>
</svg>
