<svg width="14" height="15" viewBox="0 0 14 15" fill="none" xmlns="http://www.w3.org/2000/svg">
<path d="M14 7.5C14 11.6421 10.866 15 7 15C3.134 15 0 11.6421 0 7.5C0 3.35785 3.134 0 7 0C10.866 0 14 3.35785 14 7.5ZM12.6452 7.5L12.6451 7.49147L11.9094 8.1792L10.1402 6.41005L10.6047 3.85899L11.5729 3.95189C10.8704 2.91714 9.87923 2.13469 8.7303 1.73997L9.11561 2.70587L7 3.96169L4.88439 2.7059L5.2697 1.74C4.12286 2.13399 3.13075 2.9155 2.42711 3.95193L3.40273 3.85899L3.85977 6.41005L2.09063 8.1792L1.35495 7.49147L1.35487 7.5C1.35487 8.80086 1.73583 10.0389 2.44077 11.0683L2.65822 10.0432L5.06131 10.3591L6.08594 12.7127L5.24193 13.2506C6.37666 13.6474 7.62108 13.6482 8.75807 13.2506L7.91406 12.7127L8.93869 10.3591L11.3418 10.0432L11.5592 11.0683C12.2642 10.0389 12.6452 8.80086 12.6452 7.5ZM5.64228 9.60396L4.7985 6.84251L7 5.13302L9.2015 6.84251L8.36539 9.60396H5.64228Z" fill="#EDA600"/>
</svg>
