<svg height="64" viewBox="0 0 64 64" width="64" xmlns="http://www.w3.org/2000/svg"><g fill="none" fill-rule="evenodd"><path d="m46.5370825 39.9023289c2.688572 2.1027635 8.8370029 14.5271647 12.6163226 13.514499 4.2677289-1.1435345 5.2939847-11.1522066 2.2922067-22.3549947-3.0017781-11.2027882-4.7757691-19.8820369-9.5606098-21.31017409-1.8410346-.54949586-5.584799-1.67381466-9.5553691.70114689-3.97057 2.3749615-16.5222533 2.3749615-20.4928233 0-3.97057-2.37496155-7.7143344-1.25064275-9.5553691-.70114689-4.78484063 1.42813719-6.55883172 10.10738589-9.56060977 21.31017409-3.00177804 11.2027881-1.97552216 21.2114602 2.29220667 22.3549947 3.7793197 1.0126657 9.9277506-11.4117355 12.6163226-13.514499 1.8620663-1.4563438 7.1628778-1.603287 10.6356046-1.5560023l9-.0065167c3.3687258.0156651 7.6405197.286427 9.2721179 1.562519z" fill="#595959"/><circle cx="32" cy="21" fill="#ed9111" r="2"/><path d="m25 28v-3h-3v3h-3v3h3v3h3v-3h3v-3z" fill="#ffdd95"/><circle cx="15" cy="20" fill="#e43535" r="4"/><circle cx="39" cy="30" fill="#80d25b" r="4"/><path d="m45 14h4v4l-2 1.133-2-1.133z" fill="#ed9111"/><path d="m49.566 17.434h4v4l-2 1.132-2-1.132z" fill="#e43535" transform="matrix(0 1 -1 0 71.566 -31.566)"/><path d="m40.566 17.434h4v4l-2 1.132-2-1.132z" fill="#5ea7ff" transform="matrix(0 1 1 0 22.566 -22.566)"/><path d="m45 21h4v4l-2 1.133-2-1.133z" fill="#22ba8e" transform="matrix(1 0 0 -1 0 47.133)"/></g></svg>