<svg width="15" height="15" viewBox="0 0 15 15" fill="none" xmlns="http://www.w3.org/2000/svg">
<path d="M8.5244 14.8127C7.03464 14.8127 4.83184 14.7702 2.91501 14.4043C0.35507 13.9161 0.164011 12.9108 0.187737 11.9231C0.207717 11.0827 0.592333 8.26923 0.971953 7.11788C1.54638 5.37712 2.42425 3.64636 2.95872 2.9021C3.69173 1.88187 5.54987 0.242259 7.41801 0.186066H7.43549C7.68274 0.186066 7.92875 0.348403 8.0761 0.609392L8.80662 1.8981C8.98144 2.20779 8.9777 2.58866 8.79663 2.89336C8.64803 3.14311 8.21596 3.21054 8.21221 3.21179L7.86881 3.26174L8.09982 3.52273C8.09858 3.52273 8.176 3.64511 7.99368 3.90984C7.83134 4.14586 7.51541 4.25949 7.02964 4.25949C6.57385 4.25949 6.05437 4.15585 5.63729 4.07343C5.61231 4.06843 5.58609 4.06594 5.55986 4.06594C5.40502 4.06594 5.24518 4.1521 5.10032 4.31444C4.91301 4.52298 4.32235 5.37088 4.56211 7.51998C4.68074 8.58642 4.32735 9.54671 4.3236 9.55669L4.175 9.9538L4.56836 9.79645C4.5721 9.79396 5.1715 9.55919 5.99568 9.55919H6.08309L6.13929 9.49176C6.15677 9.47053 7.88004 7.43382 10.1166 7.43382C11.5776 7.43382 12.9762 8.02573 13.8578 9.01723C14.4797 9.71653 14.7707 10.5445 14.6757 11.3474C14.3086 14.4668 11.3653 14.8039 10.1166 14.8039C9.94173 14.8039 9.73694 14.8052 9.50842 14.8077C9.21746 14.8102 8.88654 14.8127 8.5244 14.8127Z" fill="url(#paint0_linear_1_138)"/>
<path d="M7.43672 0.374625C7.61404 0.374625 7.80135 0.503247 7.91499 0.703047L8.64551 1.99176C8.78786 2.24276 8.78412 2.55245 8.63801 2.7997C8.56684 2.91958 8.32583 3.00699 8.18846 3.02822L7.4979 3.12562L7.92748 3.61014C7.92623 3.63511 7.91249 3.6988 7.84006 3.8037C7.71644 3.98227 7.44421 4.07343 7.02962 4.07343C6.59256 4.07343 6.08307 3.97228 5.67473 3.89111C5.63727 3.88362 5.59855 3.87987 5.56109 3.87987C5.41499 3.87987 5.19146 3.93357 4.96169 4.19081C4.42847 4.78646 4.20994 6.03896 4.37603 7.54121C4.48841 8.55644 4.15125 9.48302 4.14751 9.49176L3.8528 10.2797L4.63702 9.97128C4.64076 9.96753 5.21144 9.7465 5.99566 9.7465H6.17173L6.28412 9.61164C6.30035 9.59166 7.97243 7.62113 10.1178 7.62113C11.5264 7.62113 12.8725 8.18931 13.7192 9.14211C14.3048 9.80145 14.5796 10.5769 14.4909 11.3262C14.3548 12.48 13.8416 13.3467 12.9637 13.9048C12.0346 14.493 10.9032 14.6166 10.1165 14.6166C9.94171 14.6166 9.73692 14.6179 9.50715 14.6204C9.21619 14.6229 8.88527 14.6254 8.52563 14.6254C7.04336 14.6254 4.8518 14.5829 2.9512 14.2208C1.83107 14.0072 1.1043 13.6838 0.725927 13.233C0.400003 12.8447 0.366287 12.3764 0.376277 11.9281C0.396257 11.0964 0.775877 8.31419 1.15175 7.17782C1.69995 5.51698 2.57907 3.75624 3.11354 3.01324C3.82533 2.02173 5.62603 0.42957 7.42548 0.375874L7.43672 0.374625ZM7.43672 0H7.41424C5.43996 0.0586913 3.53062 1.78696 2.80884 2.79346C2.25814 3.56144 1.36779 5.32842 0.795857 7.05919C0.418734 8.20305 0.0228801 11.0265 0.00165137 11.9181C-0.0245724 13.0082 0.23267 14.0822 2.88127 14.5879C4.76564 14.9476 6.93597 15 8.52563 15C9.17123 15 9.72068 14.9913 10.1165 14.9913C12.2394 14.9913 14.5359 14.1434 14.8618 11.3699C15.1115 9.247 12.8638 7.2465 10.1165 7.2465C7.76264 7.2465 5.99566 9.37188 5.99566 9.37188C5.12153 9.37188 4.49716 9.62163 4.49716 9.62163C4.49716 9.62163 4.87178 8.62263 4.74691 7.49875C4.4984 5.25849 5.17148 4.25325 5.55984 4.25325C5.57358 4.25325 5.58732 4.2545 5.60105 4.25699C6.03312 4.34316 6.5576 4.4468 7.02962 4.4468C7.50165 4.4468 7.92123 4.34316 8.14726 4.01598C8.42822 3.61014 8.23966 3.39785 8.23966 3.39785C8.23966 3.39785 8.76039 3.32418 8.95894 2.98951C9.17498 2.62612 9.17997 2.17408 8.97143 1.80569L8.23966 0.516983C8.07358 0.223527 7.77263 0 7.43672 0Z" fill="#EDA600"/>
<path d="M7.34181 1.81946C7.02837 1.76077 6.655 1.74828 6.36404 1.89564C6.00315 2.0792 5.87703 2.55498 6.08682 2.90088C6.4015 3.41662 7.2519 3.46657 7.79011 3.44534C8.02987 3.43535 8.03112 3.06072 7.79011 3.07071C7.40175 3.0857 6.91724 3.06572 6.57882 2.85967C6.33657 2.71107 6.25415 2.37141 6.5526 2.22031C6.74491 2.12166 7.03337 2.14289 7.24066 2.1816C7.47792 2.22406 7.57907 1.86317 7.34181 1.81946Z" fill="#EDA600"/>
<path d="M4.02264 9.8389C3.42324 10.7118 3.2684 11.5897 3.48068 12.6236C3.52939 12.8596 3.89027 12.7597 3.84157 12.5237C3.64927 11.5847 3.80161 10.8204 4.34607 10.0275C4.48343 9.82891 4.15876 9.6416 4.02264 9.8389Z" fill="#EDA600"/>
<path d="M5.46742 3.86615C5.1902 3.82619 4.79435 3.49028 4.62951 3.13563C4.57956 3.02824 4.60079 2.87589 4.40473 2.86465C4.13376 2.84967 4.33231 3.39412 4.42471 3.52774C4.67821 3.89113 5.02162 4.09467 5.47117 4.12714C5.71218 4.14462 5.71468 3.90112 5.46742 3.86615Z" fill="#EDA600"/>
<path d="M6.18921 11.0452C6.50389 12.3452 7.68272 13.3142 8.98267 13.4903C10.2377 13.6601 12.3456 13.3691 12.9637 12.0267C13.0636 11.8094 12.7414 11.6184 12.6403 11.8382C12.0746 13.0682 10.0553 13.3005 8.92148 13.1057C7.81134 12.9146 6.81983 12.0604 6.55135 10.9466C6.4939 10.7118 6.13302 10.8104 6.18921 11.0452Z" fill="#EDA600"/>
<defs>
<linearGradient id="paint0_linear_1_138" x1="7.43986" y1="13.8299" x2="7.43986" y2="1.8544" gradientUnits="userSpaceOnUse">
<stop stop-color="#FFB300"/>
<stop offset="0.4007" stop-color="#FFCA28"/>
</linearGradient>
</defs>
</svg>
