<svg width="25" height="25" viewBox="0 0 25 25" fill="none" xmlns="http://www.w3.org/2000/svg">
<path d="M18.5249 2.70361C19.8999 2.70361 21.0249 3.48639 21.0249 4.45285C21.0249 5.4193 19.8999 6.20208 18.5249 6.20208V8.6029V8.8478H6.47493V6.20208C5.78743 6.20208 5.16243 6.00529 4.71243 5.69043C4.25618 5.37557 3.97493 4.93826 3.97493 4.45285C3.97493 3.48639 5.09993 2.70361 6.47493 2.70361C7.02493 2.70361 7.52493 2.83043 7.93743 3.03597C7.73743 2.7867 7.61243 2.49808 7.61243 2.18759C7.61243 1.22114 8.73118 0.438354 10.1124 0.438354C11.2499 0.438354 12.1999 0.971871 12.4999 1.6978C12.7999 0.971871 13.7499 0.438354 14.8874 0.438354C16.2687 0.438354 17.3874 1.22114 17.3874 2.18759C17.3874 2.49808 17.2624 2.7867 17.0624 3.03597C17.4749 2.83043 17.9749 2.70361 18.5249 2.70361Z" fill="white"/>
<path d="M19.5981 2.87229C18.981 2.57737 17.0613 3.03772 17.0613 3.03772C17.9976 1.39436 15.8524 0.572266 15.8524 0.572266C15.8524 0.572266 16.3524 2.20303 14.8734 3.08613C14.7146 3.1809 14.6022 3.30763 14.6022 3.45365V8.83372H15.0001L15.1953 8.8496H18.5223V8.60379V6.20095C19.9029 6.20095 21.0223 5.41782 21.0223 4.45172C21.0223 3.75513 20.4404 3.15365 19.5981 2.87229L19.5866 3.04586Z" fill="#D0CFCE"/>
<path d="M24.3359 24.9931C24.3359 24.9931 25.5859 19.4692 18.0859 19.4692C16.091 20.3998 14.3819 21.0428 12.4609 21.0401H12.5391C10.6181 21.0428 8.909 20.3998 6.91406 19.4692C-0.585938 19.4692 0.664062 24.9931 0.664062 24.9931" fill="white"/>
<path d="M17.754 19.4692C15.7728 20.3934 12.0815 22.2124 6.91406 19.4692C7.15437 21.8901 12.9595 24.1219 18.984 22.0468L19.246 24.9931H24.3583C24.3583 24.9931 25.254 19.4692 17.754 19.4692Z" fill="#D0CFCE"/>
<path d="M18.7021 8.84949H6.28769C0.37688 14.2019 2.52782 16.5604 5.68338 17.0634C6.27907 17.1583 6.91063 17.2434 7.53044 17.2434L17.4594 17.1996C21.3626 17.1996 25.7288 15.2123 18.7021 8.84949Z" fill="#A57939"/>
<path d="M18.5693 8.83362H12.9361L5.53619 10.8802C5.45556 11.2544 5.41338 11.6405 5.41338 12.0352C5.41338 15.4582 8.58619 18.2332 12.5 18.2332C16.4138 18.2332 19.5866 15.4582 19.5866 12.0352C19.5866 10.8636 19.215 9.76806 18.5693 8.83362Z" fill="#FCEA2B"/>
<path d="M19.9446 17.0243C19.6852 17.0243 19.4429 16.9107 19.3537 16.7296C19.2414 16.5011 19.4142 16.2525 19.7408 16.1736C20.7771 15.9233 21.4302 15.4984 21.6811 14.9108C22.0534 14.0391 21.7524 12.3268 18.2075 9.11681C17.9963 8.92571 18.0464 8.65112 18.3198 8.50335C18.5932 8.35537 18.9857 8.39145 19.1963 8.58216C22.303 11.3948 23.5414 13.6082 22.8786 15.161C22.5111 16.0215 21.5669 16.6578 20.1484 17.0003C20.0807 17.0166 20.0123 17.0243 19.9446 17.0243Z" fill="black"/>
<path d="M4.83962 16.9713C4.76393 16.9713 4.68637 16.9619 4.61193 16.9414C3.29299 16.5797 2.42074 15.9459 2.08937 15.1076C1.47656 13.5578 2.72287 11.3623 5.79355 8.58213C6.00355 8.39142 6.39599 8.35512 6.67006 8.50333C6.94349 8.65109 6.99355 8.92568 6.78237 9.11678C3.27405 12.2937 2.94874 14.0015 3.29418 14.8744C3.51943 15.4445 4.1163 15.866 5.06724 16.1265C5.38893 16.215 5.54762 16.4686 5.42124 16.6932C5.3248 16.8658 5.08924 16.9713 4.83962 16.9713Z" fill="black"/>
<path d="M20.2121 12.0353C20.2121 15.6956 16.7496 18.6693 12.4996 18.6693C8.24956 18.6693 4.78706 15.6956 4.78706 12.0353C4.78706 11.9216 4.79331 11.8079 4.79956 11.6942C4.86206 10.614 5.23081 9.56886 5.86831 8.64177C5.94956 8.52807 6.09331 8.44498 6.26206 8.41437C6.27456 8.40999 6.28706 8.40999 6.29956 8.40999C6.38706 8.40999 6.47456 8.42311 6.56206 8.45372C6.86831 8.56305 6.99956 8.82106 6.84956 9.03972C6.66206 9.31085 6.26831 9.68693 5.80581 10.1242C5.64331 10.2773 5.46206 10.4479 5.28706 10.6184C5.59956 10.5353 5.94956 10.4391 6.33081 10.3429C6.21206 10.6665 6.13081 11.0032 6.08706 11.34C6.05581 11.5717 6.03706 11.8035 6.03706 12.0353C6.03706 15.2101 8.93706 17.7946 12.4996 17.7946C16.0621 17.7946 18.9621 15.2101 18.9621 12.0353C18.9621 10.9682 18.6308 9.92745 18.0058 9.02223C17.8558 8.80794 17.9871 8.54556 18.2996 8.4406C18.6121 8.33565 18.9808 8.42749 19.1308 8.64177C19.8371 9.66503 20.2121 10.8371 20.2121 12.0353Z" fill="black"/>
<path d="M24.375 24.9967C24.0299 24.9967 23.75 24.8009 23.75 24.5594V23.2475C23.75 21.3007 20.9399 19.8318 18.3426 19.7524C14.4644 21.9441 10.5356 21.9441 6.65744 19.7524C4.06006 19.8318 1.25 21.3007 1.25 23.2475V24.5594C1.25 24.8009 0.970125 24.9967 0.625 24.9967C0.279875 24.9967 0 24.8009 0 24.5594V23.2475C0 20.9189 3.21256 18.8754 6.87469 18.8744C7.02088 18.8744 7.16275 18.9103 7.27506 18.9758C10.7907 21.0257 14.2093 21.0257 17.7249 18.9758C17.8372 18.9103 17.9788 18.8744 18.125 18.8744C21.7871 18.8754 25 20.9189 25 23.2475V24.5594C25 24.8009 24.7201 24.9967 24.375 24.9967Z" fill="black"/>
<path d="M16.2501 11.44C16.2501 11.9231 15.6897 12.3147 15.0001 12.3147C14.3104 12.3147 13.7501 11.9231 13.7501 11.44C13.7501 10.9575 14.3104 10.5654 15.0001 10.5654C15.6897 10.5654 16.2501 10.9575 16.2501 11.44Z" fill="black"/>
<path d="M11.2501 11.44C11.2501 11.9231 10.6897 12.3147 10.0001 12.3147C9.31037 12.3147 8.75006 11.9231 8.75006 11.44C8.75006 10.9575 9.31037 10.5654 10.0001 10.5654C10.6897 10.5654 11.2501 10.9575 11.2501 11.44Z" fill="black"/>
<path d="M12.5 15.8143C11.7801 15.8143 11.0602 15.6892 10.3454 15.4391C10.0366 15.331 9.9115 15.0684 10.0659 14.8523C10.22 14.6364 10.5948 14.5487 10.9046 14.6567C11.9781 15.0325 13.0219 15.0325 14.0954 14.6567C14.4046 14.5487 14.7797 14.6364 14.9341 14.8523C15.0885 15.0684 14.9634 15.331 14.6546 15.4391C13.9398 15.6892 13.2199 15.8143 12.5 15.8143Z" fill="black"/>
<path d="M19.2616 25C18.9161 25 18.6366 24.8045 18.6366 24.5627V22.5855C15.0398 23.3648 12.0161 23.3482 9.64188 22.5359C6.91726 21.6041 6.09876 19.9616 6.06519 19.892C5.95469 19.6635 6.13051 19.4154 6.45763 19.3381C6.78357 19.2608 7.13819 19.3834 7.24869 19.611C7.26151 19.6362 7.96763 20.9985 10.2168 21.7591C12.4593 22.5176 15.4341 22.4535 19.0553 21.5682C19.2463 21.5225 19.4581 21.5426 19.6236 21.6246C19.7883 21.7066 19.8866 21.8394 19.8866 21.9812V24.5627C19.8866 24.8045 19.6071 25 19.2616 25Z" fill="black"/>
<path d="M7.81256 24.778C8.33033 24.778 8.75006 24.4843 8.75006 24.122C8.75006 23.7597 8.33033 23.4661 7.81256 23.4661C7.29479 23.4661 6.87506 23.7597 6.87506 24.122C6.87506 24.4843 7.29479 24.778 7.81256 24.778Z" fill="black"/>
<path d="M17.1876 24.778C17.7054 24.778 18.1251 24.4843 18.1251 24.122C18.1251 23.7597 17.7054 23.4661 17.1876 23.4661C16.6699 23.4661 16.2501 23.7597 16.2501 24.122C16.2501 24.4843 16.6699 24.778 17.1876 24.778Z" fill="black"/>
<path d="M13.4058 9.38086C10.3683 10.1899 7.76206 10.8896 6.08706 11.34C5.96206 11.375 5.84331 11.4056 5.73087 11.4362L4.85587 11.6767C4.83712 11.6811 4.81837 11.6855 4.79962 11.6942C4.42462 11.8035 4.14962 11.9697 4.14337 11.9741C4.02462 12.0441 3.88087 12.0791 3.73087 12.0791C3.61837 12.0791 3.50587 12.0616 3.40587 12.0178C3.17462 11.9172 3.05587 11.7205 3.12462 11.5368C3.31212 11.0164 4.06837 10.2992 4.79962 9.60389C5.18712 9.23655 5.58712 8.85609 5.72462 8.6593C5.82462 8.51062 6.03712 8.41878 6.26212 8.41441C6.27462 8.41003 6.28712 8.41003 6.29962 8.41003C6.38712 8.41003 6.47462 8.42315 6.56212 8.45377C6.86837 8.56309 6.99962 8.8211 6.84962 9.03976C6.66212 9.31089 6.26837 9.68698 5.80587 10.1243C5.64337 10.2773 5.46212 10.4479 5.28712 10.6184C5.59962 10.5354 5.94962 10.4391 6.33087 10.3429C7.99337 9.88814 10.3121 9.26716 12.9621 8.56309C13.2809 8.48 13.6434 8.5937 13.7684 8.81673C13.8933 9.04413 13.7308 9.29777 13.4058 9.38086Z" fill="black"/>
<path d="M6.47781 9.28682C6.13231 9.28682 5.85281 9.09103 5.85281 8.84951V6.59422C4.42825 6.39113 3.35281 5.50755 3.35281 4.45167C3.35281 3.24605 4.75475 2.26513 6.47781 2.26513C6.6505 2.26513 6.82081 2.27514 6.98863 2.29478C6.98619 2.25892 6.985 2.22284 6.985 2.18654C6.985 0.980927 8.38694 0 10.11 0C10.4554 0 10.735 0.195783 10.735 0.437309C10.735 0.67879 10.4554 0.874617 10.11 0.874617C9.07606 0.874617 8.235 1.4631 8.235 2.18654C8.235 2.40371 8.31863 2.61808 8.48338 2.8237C8.53713 2.89096 8.56338 2.96465 8.56338 3.03746C8.56338 3.15916 8.49075 3.27894 8.354 3.36435C8.13488 3.501 7.80894 3.51189 7.57156 3.39168C7.24681 3.22686 6.86844 3.13974 6.47781 3.13974C5.44388 3.13974 4.60281 3.72823 4.60281 4.45167C4.60281 5.17511 5.44388 5.7636 6.47781 5.7636C6.82325 5.7636 7.10281 5.95938 7.10281 6.2009V8.84951C7.10281 9.09103 6.82325 9.28682 6.47781 9.28682Z" fill="black"/>
<path d="M12.5001 2.13743C12.2224 2.13743 11.9777 2.00908 11.9001 1.82226C11.6639 1.25556 10.9449 0.874617 10.11 0.874617C9.7645 0.874617 9.485 0.67879 9.485 0.437309C9.485 0.195783 9.7645 0 10.11 0C11.0481 0 11.9191 0.302355 12.5001 0.790042C13.0812 0.302355 13.9516 0 14.8896 0C15.2351 0 15.5146 0.195783 15.5146 0.437309C15.5146 0.67879 15.2351 0.874617 14.8896 0.874617C14.0553 0.874617 13.3363 1.25556 13.1001 1.82226C13.0226 2.00908 12.7778 2.13743 12.5001 2.13743Z" fill="black"/>
<path d="M18.5224 9.28682H6.47781C6.13231 9.28682 5.85281 9.09103 5.85281 8.84951C5.85281 8.60803 6.13231 8.4122 6.47781 8.4122H17.8974V6.2009C17.8974 5.95938 18.177 5.7636 18.5224 5.7636C19.5564 5.7636 20.3974 5.17511 20.3974 4.45167C20.3974 3.72823 19.5564 3.13974 18.5224 3.13974C18.1318 3.13974 17.7534 3.22686 17.4281 3.3919C17.1907 3.51172 16.8648 3.50061 16.6456 3.36413C16.4259 3.22729 16.3728 3.00243 16.5169 2.82326C16.6811 2.61852 16.7646 2.40432 16.7646 2.18654C16.7646 1.4631 15.9236 0.874617 14.8896 0.874617C14.5442 0.874617 14.2646 0.67879 14.2646 0.437309C14.2646 0.195783 14.5442 0 14.8896 0C16.6127 0 18.0146 0.980927 18.0146 2.18654C18.0146 2.22284 18.0134 2.25892 18.011 2.295C18.1788 2.27514 18.3498 2.26513 18.5224 2.26513C20.2455 2.26513 21.6474 3.24605 21.6474 4.45167C21.6474 5.50755 20.572 6.39113 19.1474 6.59422V8.84951C19.1474 9.09103 18.8679 9.28682 18.5224 9.28682Z" fill="black"/>
</svg>
