<svg width="8" height="18" viewBox="0 0 8 18" fill="none" xmlns="http://www.w3.org/2000/svg">
<path d="M4.38414 1.36549C4.00677 0.755076 3.15129 0.279975 2.44315 0.397247C1.64931 0.52805 1.22383 1.09937 1.11107 1.82405C1.07048 2.08716 1.07799 2.34877 1.1231 2.53369C1.12911 2.55625 1.17271 2.71712 1.17572 2.76824C1.20579 2.96369 0.826911 3.15764 0.78331 3.37264C0.750234 3.53501 1.08852 3.63875 1.11558 3.66732C1.24789 3.81316 1.0389 4.50626 1.96655 4.57542C2.32287 4.60248 2.25371 4.57993 2.35896 4.62053C2.52284 4.68367 2.5078 5.11968 2.5078 5.11968C2.5078 5.11968 2.59951 5.83835 3.21293 5.6474C3.91356 5.4309 3.94062 4.93475 3.94062 4.93475C3.94062 4.93475 3.68052 4.24315 4.09848 3.52449C4.43075 2.95016 4.62771 1.7579 4.38414 1.36549Z" fill="#FFCA28"/>
<path d="M1.20879 4.05521C1.33809 4.06273 1.46438 4.03266 1.57414 3.95147C1.69291 3.86277 1.61172 3.76504 1.47491 3.82217C1.39222 3.85675 1.27645 3.87479 1.1712 3.85525L1.20879 4.05521Z" fill="#795548"/>
<path d="M1.75825 3.13793C1.85203 3.13497 1.92437 3.01551 1.91982 2.8711C1.91527 2.72669 1.83555 2.61202 1.74177 2.61498C1.64799 2.61793 1.57565 2.7374 1.5802 2.88181C1.58475 3.02621 1.66447 3.14088 1.75825 3.13793Z" fill="#404040"/>
<path d="M1.61776 2.49008C1.44937 2.52917 1.41629 2.41792 1.47643 2.33372C1.52003 2.27057 1.62377 2.22246 1.81471 2.27057C1.99513 2.31568 2.06429 2.42543 2.1109 2.49159C2.15751 2.55774 2.14698 2.62089 2.10488 2.6254C2.04775 2.6284 1.82524 2.44197 1.61776 2.49008Z" fill="#6D4C41"/>
<path d="M7.10394 15.6997L4.98854 13.2866C4.85623 13.1362 4.77805 12.9468 4.76602 12.7468L4.55854 9.37003L2.22815 9.62712L2.96185 13.1107C3.08062 13.6745 3.39786 14.1767 3.85492 14.527L6.33415 16.4214L7.10394 15.6997Z" fill="#616161"/>
<path d="M4.5315 8.81372L1.88838 9.05578L1.20731 12.1214C1.08252 12.6867 1.03892 13.2685 1.07951 13.8459L1.32458 17.34H2.3274L2.77093 13.5767C2.77093 13.5767 3.52417 11.5741 3.54822 11.5621C4.16014 11.2719 4.68937 10.8224 4.6623 10.0842C4.64877 9.66018 4.57961 9.23319 4.5315 8.81372Z" fill="#7C7C7C"/>
<path d="M4.04136 10.4119H2.25222C1.91093 10.4119 1.63278 10.0842 1.63278 9.68124L1.95603 6.2984C2.02218 5.68047 2.33641 5.08209 2.65214 4.85656C2.94833 4.64457 3.37682 4.60999 3.37682 4.60999C3.60685 4.59195 3.94814 4.64758 4.16615 4.96632C4.29695 5.15726 4.39468 5.53012 4.41572 5.85037L4.65929 9.68124C4.65929 10.0857 4.38265 10.4119 4.04136 10.4119Z" fill="url(#paint0_linear_1_205)"/>
<path d="M4.32851 8.42432L3.99023 6.345L2.9423 6.51489L3.26555 8.49799L2.72881 9.97741C2.69423 10.0451 2.2086 10.2646 2.17853 10.2796C2.08532 10.3247 2.02067 10.4134 1.97256 10.5893C1.94399 10.6976 1.87183 11.0073 2.02368 11.0614C1.97256 11.2043 2.00563 11.3832 2.04473 11.4253C2.13493 11.523 2.24469 11.4794 2.24469 11.4794C2.24469 11.4794 2.25972 11.6042 2.35895 11.6388C2.48224 11.6824 2.56794 11.6147 2.56794 11.6147C2.61154 11.6478 2.66416 11.6658 2.71979 11.6658C2.78594 11.6658 2.84458 11.6403 2.88968 11.6072C2.91825 11.6192 2.99643 11.6658 3.09566 11.5952C3.1588 11.5501 3.35726 11.29 3.41891 11.1231C3.461 11.0088 3.45499 10.4345 3.50761 10.3337C3.56023 10.233 4.2804 8.80019 4.2804 8.80019H4.2789C4.34355 8.68141 4.35858 8.5476 4.32851 8.42432Z" fill="url(#paint1_linear_1_205)"/>
<path d="M3.13775 11.1922C3.10317 11.102 3.08062 11.096 3.01747 11.1125C2.93177 11.1351 2.83855 11.1321 2.78593 11.0268C2.77391 11.0013 2.75586 10.9923 2.7288 11.0013C2.63709 11.0314 2.52282 11.0329 2.48373 10.8945C2.4687 10.8434 2.44765 10.8374 2.39202 10.8374C2.37398 10.8374 2.32136 10.86 2.26723 10.8028C2.20709 10.7382 2.28828 10.6089 2.2116 10.5968C2.18905 10.5938 2.0808 10.6059 2.04772 10.4901C2.02668 10.4149 2.11388 10.3247 2.11538 10.3232C2.05524 10.3758 2.00863 10.4585 1.97405 10.5908C1.94549 10.6991 1.87332 11.0088 2.02517 11.0629C1.97405 11.2058 2.00713 11.3847 2.04622 11.4268C2.13643 11.5245 2.24618 11.4809 2.24618 11.4809C2.24618 11.4809 2.26122 11.6057 2.36045 11.6403C2.48373 11.6839 2.56943 11.6162 2.56943 11.6162C2.61303 11.6493 2.66565 11.6673 2.72128 11.6673C2.78744 11.6673 2.84607 11.6418 2.89118 11.6087C2.91974 11.6207 2.99792 11.6673 3.09715 11.5967C3.14978 11.5591 3.29862 11.3681 3.38131 11.2088C3.30764 11.2674 3.16331 11.2599 3.13775 11.1922Z" fill="url(#paint2_linear_1_205)"/>
<path d="M2.49427 18C2.58899 18 2.66717 17.9233 2.66717 17.8271V17.4061C2.66717 17.1205 2.377 16.7942 2.377 16.7942H1.32757L0.383388 17.1054C0.154859 17.1956 0.00300728 17.4152 0.0015038 17.6602L0 17.8497C0 17.9324 0.0676566 18 0.150348 18H2.49427Z" fill="#4568AD"/>
<path d="M7.76398 16.1748C7.83163 16.1071 7.83163 15.9989 7.76398 15.9312L7.46629 15.6335C7.26332 15.4306 6.82881 15.405 6.82881 15.405L6.0876 16.1462L5.64106 17.0348C5.54334 17.2603 5.59145 17.5219 5.76435 17.6978L5.89816 17.8331C5.95679 17.8918 6.05302 17.8918 6.11165 17.8331L7.76398 16.1748Z" fill="#325599"/>
<path d="M3.06103 11.296C3.07156 11.3696 3.05201 11.4253 3.02495 11.4794C2.99488 11.5305 2.9588 11.5771 2.89114 11.6087C2.88062 11.535 2.90016 11.4794 2.92723 11.4253C2.95579 11.3741 2.99338 11.3275 3.06103 11.296Z" fill="#EDA600"/>
<path d="M2.75735 11.1591C2.76788 11.2539 2.74683 11.3381 2.71676 11.4177C2.68368 11.4959 2.64459 11.5726 2.57092 11.6342C2.5604 11.538 2.58145 11.4553 2.61152 11.3756C2.64459 11.299 2.68519 11.2223 2.75735 11.1591Z" fill="#EDA600"/>
<path d="M2.39653 11.0088C2.41457 11.102 2.39953 11.1862 2.37698 11.2674C2.35142 11.3471 2.31684 11.4253 2.24918 11.4929C2.23114 11.3997 2.24618 11.3155 2.26873 11.2343C2.29579 11.1547 2.33037 11.0765 2.39653 11.0088Z" fill="#EDA600"/>
<path d="M2.37399 10.4676C2.32738 10.5082 2.28227 10.5503 2.24469 10.5954C2.20409 10.6405 2.18455 10.6811 2.17102 10.7397C2.13644 10.8509 2.10186 10.9667 2.02067 11.0735C1.99661 10.9427 2.02067 10.8194 2.07028 10.7021C2.09584 10.645 2.14546 10.5788 2.19958 10.5457C2.25521 10.5082 2.31385 10.4826 2.37399 10.4676Z" fill="#EDA600"/>
<path d="M2.7649 7.32829L4.40369 7.0306L4.13908 5.57373C4.05639 5.12118 3.62338 4.82049 3.17084 4.90318C2.71829 4.98587 2.41759 5.41887 2.50028 5.87142L2.7649 7.32829Z" fill="#ED6D23"/>
<path d="M4.90885 1.39405C4.71039 0.896393 4.30746 0.746045 4.17515 0.709962C4.11351 0.529544 3.80079 -0.15454 2.67167 0.0318915C2.39654 0.0769959 2.19507 0.207799 2.01766 0.323567C1.94249 0.373182 1.87032 0.421293 1.80266 0.452866C1.74703 0.478426 1.65081 0.502481 1.57113 0.476922C1.38921 0.416783 1.44634 0.140142 1.44634 0.140142C1.44634 0.140142 0.778793 0.272449 1.06596 0.917442C0.841939 1.01667 0.7382 1.25422 0.699109 1.47824C0.644984 1.78345 0.793829 2.07362 1.08701 2.20442C1.08701 2.20442 1.02837 1.71429 1.73651 1.74285C1.95602 1.75187 2.18605 1.78645 2.38902 1.70376C2.4672 1.67219 2.53937 1.62258 2.61454 1.58649H2.64161C2.90922 1.72932 2.55741 2.36229 2.8551 2.73214C2.91374 2.80581 2.96335 2.77875 2.96335 2.77875L3.08212 2.60284C3.17233 2.48257 3.25503 2.37732 3.36779 2.40288C3.70156 2.47655 3.64142 3.07193 3.246 3.20273C3.20691 3.21627 3.29863 3.8793 4.11802 3.8793C4.542 3.8793 4.69085 3.52749 4.69085 3.52749C4.69085 3.52749 4.51043 3.57259 4.47134 3.41924C4.45029 3.33955 4.52396 3.2313 4.65627 3.11403C5.03815 2.77424 4.89983 2.38334 4.8442 2.26155C4.90434 2.14729 5.06371 1.78345 4.90885 1.39405Z" fill="#543930"/>
<path d="M4.8457 2.26004C4.85321 2.24651 4.72692 2.56224 4.18567 2.50961C3.96315 2.50961 3.65344 3.04636 3.97819 3.40118C4.26686 3.7139 4.69234 3.52597 4.69234 3.52597C4.69234 3.52597 4.63371 3.54251 4.54801 3.51394C4.49238 3.49439 4.47283 3.42223 4.47283 3.41772C4.45178 3.33803 4.52545 3.22978 4.65776 3.11251C5.03964 2.77122 4.90132 2.38182 4.8457 2.26004Z" fill="url(#paint3_radial_1_205)"/>
<path d="M4.90886 1.39404C4.80512 1.13244 4.61418 0.911428 4.36159 0.783632C4.32551 0.76559 4.2353 0.721989 4.17366 0.709961C4.20373 0.825729 4.20072 0.950518 4.1511 1.07831C4.1496 1.08282 4.09247 1.27377 3.92859 1.42562C4.04736 1.591 4.1075 1.79096 4.16464 1.98792C4.21425 2.15932 4.26236 2.34876 4.18568 2.50963C4.28942 2.50361 4.45481 2.53218 4.63673 2.45099C4.81113 2.37281 4.90284 2.17134 4.94494 1.99093C4.99155 1.79397 4.98403 1.58499 4.90886 1.39404Z" fill="url(#paint4_radial_1_205)"/>
<path d="M4.1496 1.07982C4.28041 0.744544 4.09548 0.434826 3.81733 0.22885C3.48958 -0.013211 3.05958 -0.0312528 2.67168 0.0318934C2.39655 0.0769978 2.19508 0.207801 2.01767 0.323569C1.94099 0.373184 1.86882 0.419792 1.80117 0.452868C1.74554 0.478427 1.64932 0.502483 1.56963 0.476924C1.38771 0.416785 1.44484 0.140144 1.44484 0.140144C1.44484 0.140144 0.777298 0.27245 1.06446 0.917444C0.840444 1.01667 0.736704 1.25422 0.697614 1.47824C0.643488 1.78345 0.792333 2.07362 1.08551 2.20442C1.08551 2.20442 1.02688 1.71429 1.73501 1.74286C1.95452 1.75188 2.18456 1.78646 2.38752 1.70376C2.56794 1.6316 2.62808 1.53387 2.83105 1.5444C3.04906 1.55642 3.33923 1.63912 3.56325 1.60454C4.01579 1.53537 4.1481 1.08583 4.1496 1.07982Z" fill="url(#paint5_radial_1_205)"/>
<path d="M3.97821 3.4012C3.83237 3.24634 3.79328 2.99075 3.56475 2.85544C3.52265 3.00428 3.4159 3.14411 3.24601 3.20124C3.20692 3.21477 3.29863 3.87781 4.11803 3.87781C4.54201 3.87781 4.69085 3.52599 4.69085 3.52599C4.69085 3.52599 4.27138 3.71242 3.97821 3.4012Z" fill="url(#paint6_radial_1_205)"/>
<defs>
<linearGradient id="paint0_linear_1_205" x1="2.08419" y1="6.93141" x2="4.67769" y2="8.73559" gradientUnits="userSpaceOnUse">
<stop stop-color="#F78C1F"/>
<stop offset="0.482" stop-color="#F47F12"/>
<stop offset="1" stop-color="#EF6C00"/>
</linearGradient>
<linearGradient id="paint1_linear_1_205" x1="3.18567" y1="9.94175" x2="2.70543" y2="7.12653" gradientUnits="userSpaceOnUse">
<stop offset="0.4606" stop-color="#FFCA28"/>
<stop offset="0.9996" stop-color="#FFB300"/>
</linearGradient>
<linearGradient id="paint2_linear_1_205" x1="2.30386" y1="11.8629" x2="2.64178" y2="10.983" gradientUnits="userSpaceOnUse">
<stop offset="0.4561" stop-color="#FFCA28"/>
<stop offset="1" stop-color="#FFB300"/>
</linearGradient>
<radialGradient id="paint3_radial_1_205" cx="0" cy="0" r="1" gradientUnits="userSpaceOnUse" gradientTransform="translate(3.82226 3.04263) rotate(20.2617) scale(1.07072 1.54203)">
<stop offset="0.45" stop-color="#6D4C41" stop-opacity="0"/>
<stop offset="1" stop-color="#6D4C41"/>
</radialGradient>
<radialGradient id="paint4_radial_1_205" cx="0" cy="0" r="1" gradientUnits="userSpaceOnUse" gradientTransform="translate(3.94889 1.96317) rotate(-7.72414) scale(1.08532 1.36955)">
<stop offset="0.45" stop-color="#6D4C41" stop-opacity="0"/>
<stop offset="1" stop-color="#6D4C41"/>
</radialGradient>
<radialGradient id="paint5_radial_1_205" cx="0" cy="0" r="1" gradientUnits="userSpaceOnUse" gradientTransform="translate(2.73873 1.58872) rotate(-8.82371) scale(2.23392 1.67917)">
<stop offset="0.45" stop-color="#6D4C41" stop-opacity="0"/>
<stop offset="1" stop-color="#6D4C41"/>
</radialGradient>
<radialGradient id="paint6_radial_1_205" cx="0" cy="0" r="1" gradientUnits="userSpaceOnUse" gradientTransform="translate(4.06939 3.17387) rotate(14.2586) scale(1.20258 0.773128)">
<stop offset="0.45" stop-color="#6D4C41" stop-opacity="0"/>
<stop offset="1" stop-color="#6D4C41"/>
</radialGradient>
</defs>
</svg>
