<svg width="25" height="30" viewBox="0 0 25 30" fill="none" xmlns="http://www.w3.org/2000/svg">
<path d="M5.52263 25.3223H20.635L24.0564 29.8279H2.1012L5.52263 25.3223Z" fill="white"/>
<path d="M24.0565 29.9998H2.10658C2.0803 30 2.05457 29.9902 2.03263 29.9717C2.01068 29.9532 1.9935 29.9268 1.98325 29.8958C1.97301 29.8648 1.97015 29.8306 1.97505 29.7975C1.97994 29.7645 1.99237 29.734 2.01076 29.71L5.43353 25.2043C5.4459 25.1877 5.46076 25.1745 5.47723 25.1654C5.49369 25.1563 5.51142 25.1516 5.52935 25.1515H20.635C20.653 25.1516 20.6707 25.1563 20.6872 25.1654C20.7036 25.1745 20.7185 25.1877 20.7309 25.2043L24.1523 29.7083C24.1707 29.7323 24.1831 29.7628 24.188 29.7958C24.1929 29.8289 24.19 29.8631 24.1798 29.8941C24.1696 29.9251 24.1524 29.9515 24.1304 29.97C24.1085 29.9885 24.0827 29.9983 24.0565 29.9981V29.9998ZM2.41665 29.6588H23.7411L20.5791 25.4941H5.57858L2.41665 29.6588Z" fill="#093F68"/>
<path d="M17.9694 26.2769C17.9694 26.2769 17.4438 27.8435 17.5862 28.0072C17.7286 28.1708 20.4434 28.3174 20.4567 28.0072C20.47 27.6969 19.2111 27.1548 19.0593 27.0048C18.9076 26.8548 19.0593 26.2769 19.0593 26.2769H17.9694Z" fill="#FFC9B0"/>
<path d="M19.2896 28.3584C18.5085 28.3584 17.6182 28.2732 17.4971 28.1334C17.4385 28.0669 17.2841 27.8879 17.8484 26.2087C17.8587 26.1785 17.8756 26.1527 17.8971 26.1346C17.9186 26.1164 17.9438 26.1067 17.9695 26.1064H19.0594C19.0804 26.1064 19.1011 26.1127 19.1199 26.1248C19.1386 26.137 19.1548 26.1546 19.1672 26.1763C19.1796 26.1982 19.1877 26.2235 19.1909 26.2502C19.1942 26.2769 19.1924 26.3041 19.1858 26.3298C19.1299 26.5514 19.1073 26.819 19.1419 26.8702C19.2576 26.9481 19.3767 27.0176 19.4986 27.0781C20.2784 27.5043 20.6031 27.7294 20.5898 28.0175C20.5859 28.0682 20.57 28.1162 20.5444 28.1551C20.5187 28.1941 20.4844 28.2221 20.4461 28.2357C20.2837 28.3209 19.806 28.3584 19.2896 28.3584ZM17.6927 27.8811C18.0294 28.0004 19.8219 28.0788 20.2718 27.951C19.9922 27.7312 19.6978 27.5441 19.3921 27.3918C19.2487 27.324 19.1102 27.2402 18.9782 27.1412C18.8292 26.998 18.8452 26.6792 18.8851 26.4474H18.0573C17.871 27.0202 17.6954 27.6748 17.694 27.8811H17.6927Z" fill="#093F68"/>
<path d="M7.63465 25.6939C7.63465 25.6939 6.80558 26.8872 6.48353 27.1872C6.16148 27.4872 5.59723 28.0004 5.59723 28.2203C5.59723 28.4402 5.74894 28.609 6.10958 28.5118C6.47022 28.4146 6.82953 28.1947 7.09436 28.1708C7.35918 28.147 7.53085 28.268 7.68256 28.1231C7.83427 27.9782 7.8529 27.2963 7.94872 27.1514C8.04453 27.0065 8.62609 26.4422 8.62609 26.4422L7.93009 25.4501L7.63465 25.6939Z" fill="#FFC9B0"/>
<path d="M5.92053 28.7093C5.80407 28.7176 5.68908 28.6729 5.59582 28.5832C5.55361 28.5395 5.5197 28.4842 5.49664 28.4212C5.47359 28.3583 5.462 28.2896 5.46274 28.2201C5.46274 28.0172 5.61711 27.7615 6.40493 27.0472C6.71101 26.771 7.52545 25.5931 7.53344 25.5811C7.54208 25.5699 7.55143 25.5597 7.56138 25.5504L7.85548 25.3067C7.88224 25.2847 7.91427 25.2757 7.94576 25.2813C7.97725 25.2869 8.00612 25.3068 8.02716 25.3374L8.72315 26.3278C8.73536 26.3453 8.74462 26.3658 8.75034 26.3881C8.75607 26.4104 8.75814 26.434 8.75642 26.4574C8.75466 26.4808 8.74914 26.5034 8.74021 26.524C8.73128 26.5445 8.71913 26.5625 8.70452 26.5767C8.47672 26.7892 8.25773 27.0168 8.04845 27.2586C8.01765 27.3623 7.99491 27.4697 7.98058 27.5791C7.93533 27.8535 7.88742 28.1348 7.761 28.261C7.69956 28.3117 7.63081 28.3461 7.55881 28.3622C7.48681 28.3783 7.41302 28.3758 7.3418 28.3547C7.26287 28.3411 7.18311 28.3371 7.10359 28.3428C6.93713 28.3731 6.77378 28.4268 6.61653 28.5031C6.45844 28.5708 6.29763 28.6278 6.13479 28.6735C6.06453 28.6949 5.99272 28.7069 5.92053 28.7093ZM7.72241 25.8232C7.61461 25.98 6.87337 27.0438 6.56064 27.3268C5.84601 27.9712 5.74087 28.1792 5.7289 28.2303C5.7289 28.2473 5.73203 28.264 5.73804 28.2791C5.74406 28.2942 5.75278 28.3073 5.7635 28.3172C5.78878 28.3445 5.87129 28.4008 6.08155 28.3445C6.23499 28.2976 6.38645 28.2407 6.53535 28.174C6.71283 28.0903 6.89725 28.0331 7.08496 28.0036C7.18046 27.9971 7.27622 28.0017 7.37108 28.0172C7.49085 28.0325 7.55207 28.0377 7.60264 27.9899C7.66379 27.8416 7.70389 27.6806 7.72108 27.5143C7.73587 27.3483 7.77855 27.1884 7.84617 27.0455C8.03005 26.8221 8.22472 26.6137 8.42905 26.4216L7.90605 25.6766L7.72241 25.8232Z" fill="#093F68"/>
<path d="M12.2285 12.1276H15.4596C15.5444 12.1273 15.6283 12.1485 15.7067 12.1898C15.7851 12.2312 15.8563 12.2919 15.9164 12.3685C15.9765 12.4451 16.0241 12.5362 16.0567 12.6364C16.0893 12.7366 16.1062 12.8441 16.1064 12.9527V18.8425H11.5817V12.9527C11.5819 12.8441 11.5988 12.7366 11.6314 12.6364C11.664 12.5362 11.7117 12.4451 11.7717 12.3685C11.8318 12.2919 11.903 12.2312 11.9814 12.1898C12.0598 12.1485 12.1437 12.1273 12.2285 12.1276Z" fill="#F56132"/>
<path d="M16.1064 19.0148H11.5817C11.5465 19.0148 11.5126 18.9968 11.4876 18.9648C11.4627 18.9329 11.4487 18.8895 11.4487 18.8443V12.9527C11.449 12.6884 11.5312 12.435 11.6771 12.248C11.823 12.0611 12.0208 11.9559 12.2272 11.9554H15.4596C15.6662 11.9554 15.8644 12.0605 16.0106 12.2474C16.1568 12.4344 16.2391 12.6881 16.2395 12.9527V18.8426C16.2397 18.8651 16.2363 18.8875 16.2297 18.9083C16.2231 18.9292 16.2134 18.9482 16.201 18.9642C16.1886 18.9802 16.1739 18.993 16.1576 19.0016C16.1414 19.0103 16.124 19.0148 16.1064 19.0148ZM11.7148 18.6738H15.9733V12.9527C15.973 12.7788 15.9189 12.6121 15.8229 12.4891C15.7269 12.3661 15.5968 12.2968 15.461 12.2964H12.2285C12.0927 12.2968 11.9626 12.3661 11.8666 12.4891C11.7706 12.6121 11.7165 12.7788 11.7162 12.9527L11.7148 18.6738Z" fill="#093F68"/>
<path d="M16.1065 6.13175C17.3919 6.13175 18.434 4.79685 18.434 3.15017C18.434 1.50348 17.3919 0.168579 16.1065 0.168579C14.821 0.168579 13.7789 1.50348 13.7789 3.15017C13.7789 4.79685 14.821 6.13175 16.1065 6.13175Z" fill="#725858"/>
<path d="M16.1063 6.30412C15.6197 6.30412 15.144 6.1193 14.7394 5.77302C14.3348 5.42675 14.0194 4.93456 13.8331 4.3587C13.6468 3.78283 13.598 3.14915 13.6929 2.53775C13.7877 1.92636 14.0219 1.36471 14.3659 0.923822C14.7099 0.48293 15.1482 0.182591 15.6254 0.0607753C16.1027 -0.0610401 16.5974 0.00113822 17.047 0.239449C17.4967 0.47776 17.8811 0.881502 18.1516 1.39963C18.4221 1.91776 18.5667 2.52701 18.5669 3.15036C18.5666 3.98635 18.3073 4.78801 17.8459 5.37931C17.3846 5.97061 16.7589 6.30322 16.1063 6.30412ZM16.1063 0.33754C15.6723 0.33754 15.2481 0.502366 14.8873 0.81118C14.5264 1.11999 14.2452 1.55893 14.079 2.07249C13.9129 2.58606 13.8694 3.15119 13.9539 3.69645C14.0385 4.2417 14.2474 4.7426 14.5541 5.13581C14.8609 5.52902 15.2518 5.79688 15.6774 5.90554C16.103 6.0142 16.5442 5.95878 16.9452 5.74627C17.3462 5.53377 17.689 5.17373 17.9303 4.71166C18.1716 4.2496 18.3005 3.70627 18.3008 3.15036C18.3004 2.40479 18.0691 1.68985 17.6577 1.1625C17.2463 0.635137 16.6883 0.338443 16.1063 0.33754Z" fill="#093F68"/>
<path d="M13.9359 2.13086C13.2995 2.07404 12.6637 2.25148 12.1034 2.64228C10.6742 3.66512 10.4013 5.97504 10.5743 7.87412C10.6129 8.29689 10.5956 8.89696 10.7367 9.28223C10.9856 9.96413 11.7521 10.4193 12.2684 10.6699C13.3331 11.1813 14.5827 11.2086 15.5714 10.4841C17.4186 9.12881 17.8098 5.75513 16.4471 3.70092C16.1309 3.2386 15.746 2.86164 15.3149 2.59206C14.8837 2.32248 14.4149 2.16569 13.9359 2.13086Z" fill="#725858"/>
<path d="M13.8268 11.2086C13.2777 11.2061 12.7335 11.0761 12.2205 10.8251C11.3609 10.4074 10.8206 9.91132 10.6156 9.35046C10.5156 9.00218 10.4647 8.63392 10.4652 8.26284C10.4586 8.12987 10.4519 8.00372 10.4413 7.8878C10.2137 5.38013 10.8099 3.36172 12.0382 2.48889C12.6227 2.08075 13.2867 1.89726 13.9506 1.96042C14.4473 1.99479 14.9337 2.15625 15.381 2.43527C15.8283 2.71429 16.2274 3.10524 16.5549 3.58504C16.8997 4.11482 17.149 4.7356 17.285 5.40306C17.421 6.07051 17.4402 6.76818 17.3414 7.44627C17.2586 8.10348 17.0636 8.72919 16.7703 9.27876C16.477 9.82832 16.0926 10.2882 15.6446 10.6256C15.0889 11.0203 14.4621 11.2213 13.8268 11.2086ZM13.7097 2.29114C13.1715 2.28637 12.6412 2.45709 12.1686 2.78722C11.6243 3.17249 10.3947 4.43741 10.7048 7.84859C10.7154 7.96962 10.7221 8.10259 10.7287 8.24238C10.7289 8.5702 10.7716 8.89569 10.8552 9.20556C11.0295 9.68288 11.5205 10.121 12.319 10.5063C13.4315 11.0467 14.6239 10.9802 15.5129 10.3358C15.9272 10.0235 16.2825 9.59779 16.5535 9.08915C16.8245 8.58051 17.0045 8.00148 17.0805 7.39342C17.1725 6.76497 17.1551 6.11828 17.0295 5.49946C16.9039 4.88064 16.6732 4.30496 16.3539 3.81347C16.0498 3.36827 15.6792 3.00558 15.2639 2.74676C14.8486 2.48794 14.3971 2.33824 13.9359 2.30648C13.8547 2.29455 13.7815 2.29114 13.7097 2.29114Z" fill="#093F68"/>
<path d="M13.8866 13.2252H13.7389C13.6281 13.2252 13.5218 13.1688 13.4434 13.0684C13.3651 12.9681 13.3211 12.8319 13.3211 12.6899V11.962H14.3045V12.6899C14.3045 12.8319 14.2605 12.9681 14.1821 13.0684C14.1038 13.1688 13.9975 13.2252 13.8866 13.2252Z" fill="#FFC9B0"/>
<path d="M13.8866 13.396H13.7389C13.5929 13.3956 13.4529 13.3211 13.3497 13.1888C13.2464 13.0566 13.1883 12.8773 13.1879 12.6903V11.9623C13.1879 11.9171 13.2019 11.8738 13.2269 11.8418C13.2519 11.8098 13.2857 11.7919 13.321 11.7919H14.3045C14.3397 11.7919 14.3736 11.8098 14.3986 11.8418C14.4235 11.8738 14.4375 11.9171 14.4375 11.9623V12.6903C14.4372 12.8773 14.379 13.0566 14.2758 13.1888C14.1725 13.3211 14.0326 13.3956 13.8866 13.396ZM13.4541 12.1328V12.6903C13.4541 12.787 13.4841 12.8798 13.5375 12.9482C13.5909 13.0166 13.6633 13.0551 13.7389 13.0551H13.8866C13.9621 13.0551 14.0346 13.0166 14.088 12.9482C14.1414 12.8798 14.1714 12.787 14.1714 12.6903V12.1328H13.4541Z" fill="#093F68"/>
<path d="M15.6672 8.68035C15.6672 9.26507 16.0957 9.73728 16.6227 9.73728C17.1497 9.73728 17.5782 8.95822 17.5782 8.37349C17.5782 7.78877 17.151 7.6217 16.6227 7.6217C16.0944 7.6217 15.6672 8.09562 15.6672 8.68035Z" fill="#FFC9B0"/>
<path d="M16.6227 9.90795C16.0225 9.90795 15.5341 9.35732 15.5341 8.68054C15.5341 8.00376 16.0225 7.45312 16.6227 7.45312C17.5223 7.45312 17.7113 7.95432 17.7113 8.37539C17.7113 9.06581 17.2096 9.90795 16.6227 9.90795ZM16.6227 7.79407C16.1689 7.79407 15.8003 8.19128 15.8003 8.68054C15.8003 9.1698 16.1689 9.567 16.6227 9.567C17.0765 9.567 17.4451 8.90045 17.4451 8.37368C17.4451 8.21514 17.4451 7.79407 16.6227 7.79407Z" fill="#093F68"/>
<path d="M10.098 8.37533C10.098 8.95835 10.5265 9.73912 11.0535 9.73912C11.5805 9.73912 12.009 9.26691 12.009 8.68218C12.009 8.09746 11.5818 7.62524 11.0535 7.62524C10.5251 7.62524 10.098 7.7906 10.098 8.37533Z" fill="#FFC9B0"/>
<path d="M11.0534 9.90807C10.4679 9.90807 9.96484 9.06592 9.96484 8.3738C9.96484 7.95273 10.1538 7.45154 11.0534 7.45154C11.6536 7.45154 12.142 8.00217 12.142 8.67895C12.142 9.35573 11.6536 9.90807 11.0534 9.90807ZM11.0534 7.79419C10.231 7.79419 10.231 8.21526 10.231 8.37551C10.231 8.90057 10.6183 9.56882 11.0534 9.56882C11.4886 9.56882 11.8758 9.17162 11.8758 8.68236C11.8758 8.1931 11.5072 7.79419 11.0534 7.79419Z" fill="#093F68"/>
<path d="M13.8175 12.1275C14.1963 12.1268 14.5714 12.0305 14.9212 11.8442C15.2711 11.6578 15.5888 11.385 15.8564 11.0414C16.1239 10.6977 16.336 10.2899 16.4805 9.84123C16.625 9.39257 16.6991 8.91184 16.6986 8.42649V6.71153C16.6986 5.82336 15.634 4.15442 14.9486 4.15442C14.9486 4.15442 14.8355 4.99656 13.7509 5.7313C12.9897 6.24272 11.9158 6.80529 10.939 5.93417V8.41967C10.9379 8.90525 11.0115 9.38633 11.1556 9.83546C11.2997 10.2846 11.5115 10.693 11.7788 11.0373C12.046 11.3816 12.3637 11.655 12.7135 11.8421C13.0633 12.0292 13.4384 12.1261 13.8175 12.1275Z" fill="#FFC9B0"/>
<path d="M13.8174 12.2981C13.0173 12.2953 12.2506 11.8863 11.6856 11.1605C11.1205 10.4348 10.8032 9.4516 10.8032 8.4266V5.94109C10.8032 5.90978 10.8098 5.87907 10.8225 5.8523C10.8352 5.82554 10.8534 5.80377 10.8751 5.78937C10.896 5.77593 10.9193 5.7698 10.9427 5.77159C10.9661 5.77339 10.9886 5.78305 11.0082 5.79959C11.9091 6.60594 12.9098 6.10986 13.6817 5.58821C14.6878 4.90631 14.8129 4.13918 14.8142 4.13066C14.8199 4.09094 14.8364 4.0551 14.8607 4.0295C14.8851 4.0039 14.9158 3.99021 14.9473 3.99087C15.7231 3.99087 16.8303 5.75186 16.8303 6.71845V8.43342C16.8289 9.45694 16.5112 10.4381 15.9466 11.1623C15.382 11.8866 14.6164 12.2949 13.8174 12.2981ZM11.068 6.24624V8.4266C11.06 8.89552 11.1251 9.36178 11.2597 9.79801C11.3942 10.2342 11.5954 10.6317 11.8514 10.967C12.1074 11.3022 12.4132 11.5686 12.7507 11.7505C13.0882 11.9324 13.4506 12.0261 13.8168 12.0261C14.1829 12.0261 14.5454 11.9324 14.8829 11.7505C15.2204 11.5686 15.5261 11.3022 15.7822 10.967C16.0382 10.6317 16.2394 10.2342 16.3739 9.79801C16.5084 9.36178 16.5736 8.89552 16.5655 8.4266V6.71163C16.5655 5.97348 15.6646 4.49547 15.0444 4.34375C14.9593 4.63867 14.6785 5.30181 13.8095 5.88995C13.019 6.41841 12.0222 6.9179 11.0641 6.24624H11.068Z" fill="#093F68"/>
<path d="M11.8067 7.56395C11.7361 7.56395 11.6684 7.52802 11.6185 7.46408C11.5686 7.40014 11.5405 7.31342 11.5405 7.223C11.5405 7.13257 11.5686 7.04585 11.6185 6.98191C11.6684 6.91797 11.7361 6.88205 11.8067 6.88205L13.0789 6.87012C13.1495 6.87012 13.2172 6.90604 13.2671 6.96998C13.317 7.03392 13.3451 7.12064 13.3451 7.21106C13.3451 7.30149 13.317 7.38821 13.2671 7.45215C13.2172 7.51609 13.1495 7.55201 13.0789 7.55201L11.8067 7.56395Z" fill="#093F68"/>
<path d="M14.4203 7.56395C14.3497 7.56395 14.282 7.52802 14.2321 7.46408C14.1822 7.40014 14.1541 7.31342 14.1541 7.223C14.1541 7.13257 14.1822 7.04585 14.2321 6.98191C14.282 6.91797 14.3497 6.88205 14.4203 6.88205L15.6925 6.87012C15.7631 6.87012 15.8308 6.90604 15.8807 6.96998C15.9306 7.03392 15.9587 7.12064 15.9587 7.21106C15.9587 7.30149 15.9306 7.38821 15.8807 7.45215C15.8308 7.51609 15.7631 7.55201 15.6925 7.55201L14.4203 7.56395Z" fill="#093F68"/>
<path d="M13.7815 9.53112C13.7041 9.53234 13.6268 9.52146 13.5513 9.49873C13.5222 9.49033 13.495 9.47332 13.4718 9.44905C13.4487 9.42478 13.4304 9.39392 13.4182 9.35894C13.3357 9.12369 13.526 8.59181 13.6458 8.29518C13.6627 8.25627 13.6908 8.22736 13.7241 8.21463C13.7574 8.20191 13.7933 8.20637 13.824 8.22708C13.8548 8.24779 13.878 8.28309 13.8887 8.32545C13.8994 8.3678 13.8968 8.41384 13.8814 8.45372C13.7831 8.68249 13.7096 8.9274 13.6631 9.18165C13.7754 9.19468 13.8885 9.18952 13.9998 9.16631C14.0351 9.15839 14.0714 9.16877 14.1007 9.19514C14.13 9.22152 14.15 9.26173 14.1562 9.30695C14.1623 9.35216 14.1542 9.39866 14.1337 9.43623C14.1131 9.47379 14.0817 9.49934 14.0464 9.50725C13.9587 9.52375 13.8702 9.53173 13.7815 9.53112Z" fill="#093F68"/>
<path d="M12.4428 8.70101C12.5832 8.70101 12.697 8.55524 12.697 8.37541C12.697 8.19558 12.5832 8.0498 12.4428 8.0498C12.3025 8.0498 12.1887 8.19558 12.1887 8.37541C12.1887 8.55524 12.3025 8.70101 12.4428 8.70101Z" fill="#093F68"/>
<path d="M14.9619 8.70101C15.1023 8.70101 15.2161 8.55524 15.2161 8.37541C15.2161 8.19558 15.1023 8.0498 14.9619 8.0498C14.8215 8.0498 14.7077 8.19558 14.7077 8.37541C14.7077 8.55524 14.8215 8.70101 14.9619 8.70101Z" fill="#093F68"/>
<path d="M13.9052 10.6751C13.4188 10.6579 12.9477 10.4535 12.5532 10.0887C12.5394 10.0747 12.528 10.0574 12.5195 10.0377C12.511 10.0181 12.5056 9.99647 12.5037 9.97415C12.5017 9.95183 12.5032 9.92923 12.508 9.90764C12.5128 9.88605 12.521 9.8659 12.5319 9.84832C12.5428 9.83075 12.5563 9.8161 12.5717 9.80522C12.587 9.79434 12.6039 9.78743 12.6213 9.7849C12.6387 9.78237 12.6564 9.78426 12.6732 9.79046C12.6901 9.79666 12.7058 9.80705 12.7195 9.82105C12.7661 9.86878 13.8773 10.9632 14.9725 9.82105C14.9861 9.80679 15.0017 9.79609 15.0184 9.78958C15.0352 9.78306 15.0528 9.78084 15.0702 9.78306C15.0876 9.78528 15.1046 9.79188 15.12 9.8025C15.1354 9.81311 15.1491 9.82752 15.1602 9.84491C15.1712 9.86235 15.1795 9.88241 15.1845 9.90395C15.1894 9.92549 15.191 9.94807 15.1892 9.97041C15.1873 9.99275 15.1821 10.0144 15.1736 10.0341C15.1652 10.0538 15.1539 10.0712 15.1402 10.0853C14.796 10.4629 14.3584 10.6719 13.9052 10.6751Z" fill="#093F68"/>
<path d="M11.583 18.8444L7.26599 25.8219L8.52092 26.9572C8.52092 26.9572 13.2399 21.127 13.7788 21.0298C14.3178 20.9327 17.7632 22.3783 17.7632 22.3783L17.6767 26.6163H19.0421C19.0421 26.6163 20.3941 21.9419 19.8632 21.2617C19.3322 20.5815 16.1024 18.8444 16.1024 18.8444H11.583Z" fill="#F56132"/>
<path d="M8.52097 27.1274C8.49338 27.1277 8.46641 27.1169 8.44378 27.0967L7.18886 25.9596C7.1742 25.9463 7.1618 25.9293 7.15241 25.9097C7.14303 25.89 7.13684 25.8682 7.13422 25.8454C7.13161 25.8226 7.13263 25.7994 7.13722 25.7771C7.1418 25.7549 7.14986 25.734 7.16091 25.7159L11.478 18.7384C11.4905 18.7181 11.5065 18.7017 11.5247 18.6904C11.5429 18.6792 11.5629 18.6734 11.5831 18.6736H16.1078C16.1256 18.6736 16.1432 18.6783 16.1597 18.6872C16.2927 18.7588 19.4187 20.4448 19.963 21.1403C20.5073 21.8359 19.4028 25.8778 19.1725 26.6756C19.163 26.7083 19.1459 26.7364 19.1236 26.7562C19.1012 26.776 19.0746 26.7865 19.0474 26.7864H17.6767C17.6414 26.7864 17.6076 26.7685 17.5826 26.7365C17.5577 26.7045 17.5437 26.6612 17.5437 26.616L17.6248 22.5041C16.2475 21.9313 14.1648 21.1403 13.7935 21.2034C13.4222 21.2665 10.412 24.855 8.60348 27.0831C8.58079 27.1096 8.55164 27.1252 8.52097 27.1274ZM7.45634 25.7858L8.50633 26.737C9.45518 25.5675 13.2213 20.9579 13.7589 20.8608C14.2966 20.7636 17.4478 22.0677 17.8032 22.2246C17.831 22.2361 17.855 22.2591 17.8716 22.2899C17.8882 22.3207 17.8964 22.3576 17.895 22.395L17.8165 26.4574H18.9516C19.4933 24.56 20.0894 21.8018 19.7714 21.3943C19.3722 20.8829 17.195 19.6282 16.0785 19.0265H11.647L7.45634 25.7858Z" fill="#093F68"/>
<path d="M12.1261 12.2228L5.68775 11.7949C5.68775 11.7949 3.95773 11.2835 3.72617 11.5767C3.6969 11.6142 3.61705 11.7472 3.71819 11.8136C4.09347 12.0489 4.98642 12.2125 4.9811 12.4444C4.9811 12.5688 4.90525 12.6336 4.77749 12.6149C4.67236 12.5995 4.42217 12.5023 4.27579 12.5876C4.17332 12.6473 4.22122 12.8024 4.23719 12.8297C4.37027 13.0666 4.93319 13.1161 5.53071 13.0155L11.9544 14.2821H12.0422C12.25 14.2838 12.4502 14.1829 12.6014 14.0004C12.7526 13.8178 12.843 13.5677 12.854 13.302C12.865 13.0362 12.7956 12.7753 12.6603 12.5733C12.525 12.3714 12.3341 12.244 12.1274 12.2177L12.1261 12.2228Z" fill="#FFC9B0"/>
<path d="M12.0409 14.4577C12.0068 14.4602 11.9725 14.4602 11.9384 14.4577L5.52937 13.1944C5.23261 13.2422 4.3503 13.3462 4.12673 12.9336C4.10523 12.8893 4.09075 12.84 4.08413 12.7885C4.07751 12.737 4.07887 12.6844 4.08814 12.6336C4.09752 12.5905 4.11435 12.5506 4.13739 12.517C4.16043 12.4834 4.18907 12.4568 4.22121 12.4393C4.38039 12.3771 4.55043 12.3771 4.70961 12.4393C4.74288 12.4393 4.77083 12.4546 4.79212 12.4563H4.80277C4.63438 12.3712 4.46191 12.3 4.28642 12.2432C4.07226 12.1762 3.86265 12.0873 3.65962 11.9773C3.62825 11.9592 3.6008 11.9316 3.57968 11.8969C3.55857 11.8621 3.54444 11.8212 3.53852 11.7778C3.53488 11.7202 3.54135 11.6623 3.55747 11.6083C3.57359 11.5543 3.59895 11.5056 3.63168 11.4658C3.8832 11.1454 5.15675 11.4744 5.70503 11.6363L12.1327 12.0625C12.3721 12.0953 12.5926 12.2443 12.7488 12.479C12.9049 12.7137 12.985 13.0161 12.9723 13.3241C12.9597 13.6321 12.8554 13.9221 12.6809 14.1346C12.5064 14.347 12.275 14.4657 12.0342 14.4662L12.0409 14.4577ZM5.5307 12.845H5.55067L11.973 14.1116H12.0409C12.2136 14.112 12.3798 14.0276 12.5054 13.8757C12.6309 13.7238 12.7062 13.516 12.7158 13.2951C12.7254 13.0742 12.6684 12.857 12.5567 12.6883C12.445 12.5196 12.2871 12.4121 12.1154 12.3881L5.67975 11.9602H5.65713C4.90124 11.7369 3.99631 11.5886 3.83662 11.6909C4.01088 11.7748 4.18858 11.8465 4.36893 11.9057C4.82672 12.0761 5.13014 12.1767 5.12481 12.4495C5.12436 12.4965 5.11632 12.5429 5.10121 12.5857C5.08609 12.6285 5.06423 12.6669 5.03698 12.6984C4.99994 12.7361 4.95702 12.7632 4.91111 12.7779C4.8652 12.7926 4.81737 12.7946 4.77083 12.7836C4.74421 12.7836 4.70828 12.7717 4.66836 12.7614C4.56636 12.7274 4.46028 12.7181 4.35562 12.7342C4.35595 12.737 4.35595 12.7399 4.35562 12.7427C4.41285 12.8467 4.82672 12.9626 5.51873 12.8467L5.5307 12.845Z" fill="#093F68"/>
<path d="M16.1223 12.2228L22.5606 11.7949C22.5606 11.7949 24.2907 11.2835 24.5222 11.5767C24.5515 11.6142 24.6313 11.7472 24.5302 11.8136C24.1549 12.0489 23.262 12.2125 23.2673 12.4444C23.2673 12.5688 23.3431 12.6336 23.4709 12.6149C23.576 12.5995 23.8262 12.5023 23.9726 12.5876C24.0751 12.6473 24.0272 12.8024 24.0112 12.8297C23.8781 13.0666 23.3152 13.1161 22.7177 13.0155L16.2953 14.2821H16.2075C15.9998 14.2838 15.7995 14.1829 15.6483 14.0004C15.4971 13.8178 15.4067 13.5677 15.3957 13.302C15.3848 13.0362 15.4541 12.7753 15.5895 12.5733C15.7248 12.3714 15.9156 12.244 16.1223 12.2177V12.2228Z" fill="#FFC9B0"/>
<path d="M16.2129 14.458C15.972 14.458 15.7404 14.3396 15.5656 14.1273C15.3908 13.915 15.2863 13.6249 15.2735 13.3168C15.2607 13.0087 15.3406 12.706 15.4968 12.4712C15.653 12.2363 15.8736 12.0871 16.1131 12.0543H16.1211L22.5474 11.6281C23.097 11.4662 24.3706 11.1372 24.6208 11.4577C24.6536 11.4974 24.6791 11.5461 24.6954 11.6C24.7118 11.654 24.7185 11.7119 24.7152 11.7696C24.7093 11.813 24.6952 11.8539 24.6741 11.8887C24.653 11.9235 24.6255 11.9511 24.5941 11.9691C24.3911 12.0791 24.1815 12.168 23.9673 12.235C23.7919 12.2919 23.6194 12.363 23.451 12.4481H23.4616C23.4829 12.4481 23.5109 12.4379 23.5428 12.4311C23.7025 12.3688 23.8729 12.3688 24.0326 12.4311C24.0647 12.4486 24.0933 12.4752 24.1164 12.5088C24.1394 12.5425 24.1562 12.5823 24.1656 12.6254C24.1751 12.6763 24.1764 12.7291 24.1695 12.7806C24.1627 12.8322 24.1478 12.8814 24.1257 12.9254C23.9035 13.338 23.0212 13.234 22.7244 13.1863L16.3207 14.4495C16.2849 14.4547 16.2489 14.4576 16.2129 14.458ZM16.1384 12.3936C15.9605 12.4189 15.7977 12.5337 15.6859 12.7127C15.5741 12.8918 15.5224 13.1204 15.5422 13.3482C15.5619 13.5761 15.6516 13.7846 15.7913 13.9278C15.9311 14.071 16.1095 14.1373 16.2874 14.1119L22.7031 12.847H22.7337C23.4217 12.9612 23.8343 12.847 23.8995 12.7345C23.7948 12.7193 23.6888 12.7286 23.5867 12.7618C23.5468 12.772 23.5109 12.7805 23.4843 12.784C23.4377 12.7949 23.3899 12.793 23.344 12.7783C23.2981 12.7636 23.2552 12.7364 23.2181 12.6987C23.1909 12.6672 23.169 12.6289 23.1539 12.586C23.1388 12.5432 23.1307 12.4968 23.1303 12.4498C23.1303 12.1771 23.4284 12.068 23.8862 11.906C24.0665 11.8468 24.2442 11.7751 24.4185 11.6912C24.2588 11.5787 23.3539 11.7355 22.59 11.9606H22.5674L16.1384 12.3936Z" fill="#093F68"/>
<path d="M0.950091 25.8063C0.950091 25.8063 0.0185448 23.3652 0.151623 21.715C0.151623 21.715 0.903514 22.1514 1.26549 23.4368C1.81909 25.4006 1.69134 25.8063 1.69134 25.8063H0.950091Z" fill="#70CC40"/>
<path d="M1.68472 25.9786H0.950129C0.925188 25.9787 0.900734 25.9698 0.879557 25.9529C0.85838 25.936 0.841334 25.9119 0.83036 25.8832C0.791767 25.7826 -0.119819 23.3789 0.0132593 21.7014C0.0152174 21.6745 0.0221525 21.6486 0.0334913 21.6257C0.0448301 21.6029 0.0602478 21.5839 0.0784683 21.5702C0.097215 21.5579 0.117966 21.5515 0.139018 21.5515C0.16007 21.5515 0.180822 21.5579 0.199569 21.5702C0.232838 21.5889 1.00735 22.0509 1.38396 23.3891C1.92692 25.3172 1.83244 25.803 1.80848 25.8798C1.79761 25.9099 1.7801 25.9353 1.75812 25.9529C1.73613 25.9704 1.71062 25.9794 1.68472 25.9786ZM1.03397 25.6377H1.56628C1.56628 25.4212 1.51172 24.8348 1.13378 23.4965C0.972074 22.8972 0.668845 22.3771 0.266108 22.0083C0.254131 23.3874 0.878268 25.2047 1.03397 25.636V25.6377Z" fill="#093F68"/>
<path d="M1.39458 25.6885C1.39458 25.6885 0.693257 22.2075 1.70199 19.8788C1.70199 19.8788 2.28221 20.7312 2.42194 22.7905C2.49481 23.7713 2.34899 24.7585 2.00141 25.6374L1.39458 25.6885Z" fill="#70CC40"/>
<path d="M1.3946 25.859C1.36438 25.8602 1.33474 25.8482 1.31055 25.825C1.28636 25.8018 1.26907 25.7687 1.26152 25.7312C1.23225 25.5863 0.558872 22.1512 1.58091 19.7953C1.59128 19.7713 1.606 19.7509 1.62384 19.7357C1.64168 19.7206 1.6621 19.7112 1.68338 19.7083C1.70469 19.7055 1.72622 19.7092 1.74615 19.7193C1.76608 19.7294 1.7838 19.7455 1.79783 19.7663C1.82311 19.8021 2.40866 20.6834 2.54972 22.7751C2.62719 23.7909 2.47571 24.8138 2.11322 25.7226C2.10216 25.7467 2.08668 25.7668 2.06811 25.7814C2.04955 25.796 2.02849 25.8045 2.00676 25.8062L1.39859 25.859H1.3946ZM1.71798 20.2112C0.992707 22.1819 1.38928 24.8754 1.4984 25.5095L1.91893 25.4737C2.22452 24.6421 2.3522 23.7214 2.28889 22.8058C2.1944 21.4028 1.88832 20.5743 1.71798 20.2112Z" fill="#093F68"/>
<path d="M1.698 25.5797C1.698 25.5797 1.91492 23.2561 3.38144 21.7406C3.38144 21.7406 3.81261 23.4709 2.6016 25.7842L1.698 25.5797Z" fill="#70CC40"/>
<path d="M2.60159 25.9544H2.57897L1.67404 25.7482C1.64061 25.7406 1.61069 25.717 1.59041 25.6821C1.57012 25.6473 1.561 25.6038 1.56491 25.5606C1.57423 25.4635 1.80578 23.1501 3.29493 21.609C3.31172 21.5917 3.33157 21.5798 3.35275 21.5744C3.37393 21.569 3.39582 21.5704 3.41651 21.5782C3.43721 21.5861 3.4561 21.6003 3.47155 21.6197C3.487 21.639 3.49854 21.6629 3.50519 21.6892C3.52382 21.7642 3.94302 23.5252 2.70672 25.8811C2.69488 25.903 2.67921 25.921 2.66095 25.9338C2.6427 25.9465 2.62236 25.9536 2.60159 25.9544ZM1.8497 25.443L2.53904 25.5981C3.38143 23.9377 3.35614 22.6029 3.29626 22.0591C2.23962 23.2746 1.92688 24.9265 1.8497 25.4413V25.443Z" fill="#093F68"/>
<path d="M2.39137 28.1879H1.16705C1.08161 28.1879 0.999128 28.1478 0.935148 28.0753C0.871169 28.0028 0.830112 27.9028 0.819716 27.7941L0.584167 25.3137H2.97957L2.74402 27.7941C2.73353 27.9039 2.69171 28.0049 2.6266 28.0776C2.5615 28.1503 2.47772 28.1896 2.39137 28.1879Z" fill="#FFBC0E"/>
<path d="M2.39138 28.3583H1.16706C1.04908 28.3586 0.935127 28.3033 0.846822 28.2031C0.758516 28.1029 0.701996 27.9646 0.687981 27.8145L0.451102 25.3341C0.448812 25.3099 0.450597 25.2854 0.456336 25.2622C0.462075 25.2389 0.471635 25.2175 0.484372 25.1995C0.496964 25.1816 0.512369 25.1673 0.529572 25.1576C0.546775 25.1479 0.565386 25.143 0.58418 25.1432H2.97959C2.99838 25.143 3.01699 25.1479 3.0342 25.1576C3.0514 25.1673 3.0668 25.1816 3.07939 25.1995C3.0919 25.2177 3.10121 25.2391 3.10672 25.2624C3.11223 25.2856 3.1138 25.3101 3.11133 25.3341L2.87579 27.8145C2.86139 27.9656 2.80402 28.1046 2.71466 28.2049C2.62529 28.3053 2.5102 28.3599 2.39138 28.3583ZM0.734559 25.4841L0.951476 27.7736C0.957698 27.8411 0.98313 27.9033 1.02291 27.9483C1.06268 27.9932 1.11401 28.0179 1.16706 28.0174H2.39138C2.44435 28.0175 2.49553 27.9927 2.53524 27.9478C2.57495 27.9029 2.60047 27.841 2.60697 27.7736L2.82388 25.4841H0.734559Z" fill="#093F68"/>
<path d="M24.0325 22.1855C24.2535 22.1855 24.4654 22.298 24.6216 22.4981C24.7778 22.6982 24.8656 22.9697 24.8656 23.2527V27.443C24.8656 27.5153 24.8432 27.5847 24.8032 27.6358C24.7633 27.687 24.7091 27.7157 24.6527 27.7157H23.4124C23.3559 27.7157 23.3018 27.687 23.2618 27.6358C23.2219 27.5847 23.1995 27.5153 23.1995 27.443V23.2527C23.1995 22.9697 23.2872 22.6982 23.4435 22.4981C23.5997 22.298 23.8116 22.1855 24.0325 22.1855Z" fill="#F56132"/>
<path d="M24.654 27.8811H23.4124C23.367 27.8813 23.3221 27.87 23.2801 27.848C23.2381 27.8259 23.2 27.7934 23.1678 27.7524C23.1357 27.7113 23.1102 27.6626 23.0928 27.6089C23.0754 27.5552 23.0664 27.4977 23.0664 27.4396V23.2527C23.0757 22.9322 23.1816 22.6288 23.3619 22.4062C23.5422 22.1837 23.7828 22.0593 24.0332 22.0593C24.2836 22.0593 24.5242 22.1837 24.7045 22.4062C24.8848 22.6288 24.9907 22.9322 25 23.2527V27.443C24.999 27.5596 24.9621 27.6711 24.8973 27.7531C24.8325 27.8351 24.7451 27.8811 24.654 27.8811ZM24.0326 22.356C23.847 22.3565 23.6692 22.4511 23.538 22.6192C23.4068 22.7872 23.3329 23.015 23.3326 23.2527V27.443C23.3329 27.4698 23.3415 27.4954 23.3564 27.5142C23.3714 27.533 23.3915 27.5435 23.4124 27.5435H24.654C24.675 27.5435 24.6951 27.533 24.71 27.5142C24.725 27.4954 24.7335 27.4698 24.7339 27.443V23.2527C24.7335 23.0147 24.6595 22.7867 24.528 22.6186C24.3965 22.4504 24.2183 22.356 24.0326 22.356Z" fill="#093F68"/>
<path d="M23.5947 21.5923H24.449V22.3287H23.5947V21.5923Z" fill="#F56132"/>
<path d="M24.4491 22.4991H23.5947C23.5594 22.4991 23.5255 22.4812 23.5006 22.4492C23.4756 22.4172 23.4616 22.3739 23.4616 22.3287V21.5922C23.4616 21.547 23.4756 21.5037 23.5006 21.4717C23.5255 21.4397 23.5594 21.4218 23.5947 21.4218H24.4491C24.4843 21.4218 24.5182 21.4397 24.5431 21.4717C24.5681 21.5037 24.5821 21.547 24.5821 21.5922V22.3287C24.5821 22.3739 24.5681 22.4172 24.5431 22.4492C24.5182 22.4812 24.4843 22.4991 24.4491 22.4991ZM23.7278 22.1582H24.316V21.7627H23.7278V22.1582Z" fill="#093F68"/>
</svg>
